<svg id="Layer_1" viewBox="0 0 512 512" xmlns="http://www.w3.org/2000/svg" data-name="Layer 1"><g fill-rule="evenodd"><path d="m176.8 21.589c-52.331 51.562-107.295 76.394-169.4 85.238-4.679 143.943 31.633 293.867 169.4 347.499 137.764-53.632 174.1-203.556 169.4-347.5-62.107-8.844-117.071-33.676-169.4-85.238z" fill="#72bff2"/><path d="m176.8 426.518c115.31-50.967 144.478-181.418 144.11-298.006-54.91-11.339-101.736-35.093-144.11-71.912-42.382 36.819-89.21 60.573-144.089 71.912-.396 116.588 28.772 247.039 144.089 298.006z" fill="#8dd1fe"/><path d="m228.9 219.617a11.92 11.92 0 1 1 -23.839 0v-47.593a28.262 28.262 0 0 0 -56.523 0v47.65a11.92 11.92 0 0 1 -23.839 0v-47.65a52.1 52.1 0 0 1 104.2 0z" fill="#3f5163"/><path d="m110.1 202.326h133.4a8.408 8.408 0 0 1 8.39 8.39v102.36a8.408 8.408 0 0 1 -8.39 8.39h-133.4a8.408 8.408 0 0 1 -8.39-8.39v-102.36a8.408 8.408 0 0 1 8.39-8.39z" fill="#ffab02"/><path d="m187.71 268.515v20.126a10.914 10.914 0 0 1 -21.827 0v-20.126a23.471 23.471 0 1 1 21.827 0z" fill="#d5e3f2"/><path d="m504.992 490.411c-12.926-91.19-49.437-72.935-113.414-117.808h-39.657a284.214 284.214 0 0 1 -42.066 24.123c-38.353 18.369-61.6 24.775-71.377 93.685z" fill="#fb4455"/><path d="m340.809 325.491h61.88v66.809a31.03 31.03 0 0 1 -30.954 30.954 31.025 31.025 0 0 1 -30.926-30.954z" fill="#f5ad65"/><path d="m295.341 289.775h152.816v-52.186c0-28.687-23.272-51.307-51.222-44.731-8.447 1.984-16.7-1.871-22.734-4.9-40.507-20.324-78.86 12.048-78.86 49.635z" fill="#3f5163"/><path d="m319.974 267.41a21.333 21.333 0 1 1 -29.083 8.022 21.351 21.351 0 0 1 29.083-8.022zm124.725 0a21.34 21.34 0 1 1 -29.084 8.022 21.351 21.351 0 0 1 29.085-8.022z" fill="#f5ad65"/><path d="m402.689 378.414c-9.411 6.605-19.956 10.772-30.869 10.857h-.142c-10.913-.085-21.458-4.252-30.869-10.857v-52.923h61.88z" fill="#e0974e"/><path d="m315.326 248.672c-9.071 41.67-6.775 57.827-3.062 74.126 6.01 26.476 32.428 57.941 59.471 58.2 27.071-.255 53.49-31.72 59.5-58.2 3.714-16.3 6.01-32.456-3.061-74.126-29.367 4.536-56.183.681-74.948-20.664-12.161 14.8-21.884 17.66-37.9 20.664z" fill="#fbbd80"/><path d="m331.058 114.084a673.851 673.851 0 0 1 -1.332 71.4 50.466 50.466 0 0 1 14.881-3.628 668.685 668.685 0 0 0 1.588-75.033c-62.107-8.844-117.071-33.676-169.4-85.238-3.8 3.742-7.625 7.37-11.48 10.828 51.222 49.153 105.08 73.049 165.742 81.667z" fill="#5faee3"/><path d="m240.292 202.326v98.334a8.408 8.408 0 0 1 -8.39 8.39h-130.195v4.026a8.408 8.408 0 0 0 8.39 8.39h133.403a8.408 8.408 0 0 0 8.39-8.39v-102.36a8.408 8.408 0 0 0 -8.39-8.39z" fill="#ed9e00"/><path d="m402.009 398.71c46.63 25.512 75.005 24.01 87.279 91.7h15.7c-12.161-85.776-45.185-74.721-102.3-110.438v12.328a29.74 29.74 0 0 1 -.68 6.406z" fill="#e82e41"/></g><path d="m135.026 130.249a58.7 58.7 0 0 0 -17.33 41.773v23.3h-7.6a15.41 15.41 0 0 0 -15.392 15.393v102.362a15.41 15.41 0 0 0 15.396 15.392h133.4a15.41 15.41 0 0 0 15.392-15.392v-102.361a15.411 15.411 0 0 0 -15.392-15.393h-7.6v-23.3a59.056 59.056 0 0 0 -100.876-41.773zm108.474 79.078a1.407 1.407 0 0 1 1.389 1.389v102.361a1.406 1.406 0 0 1 -1.389 1.387h-133.4a1.406 1.406 0 0 1 -1.389-1.387v-102.361a1.407 1.407 0 0 1 1.389-1.389zm-87.96-14v-23.3a21.26 21.26 0 0 1 42.52 0v23.3zm66.36-23.3v23.3h-9.837v-23.3a35.263 35.263 0 0 0 -70.526 0v23.3h-9.837v-23.3a45.1 45.1 0 0 1 90.2 0zm-63.015 100.37v16.25a17.915 17.915 0 0 0 35.83 0v-16.25a30.473 30.473 0 1 0 -35.83 0zm17.915-41.157a16.486 16.486 0 0 1 7.66 31.075 7 7 0 0 0 -3.748 6.2v20.126a3.912 3.912 0 0 1 -7.824 0v-20.125a7 7 0 0 0 -3.748-6.2 16.486 16.486 0 0 1 7.66-31.075zm335.131 258.191c-9.659-68.129-32.855-79.046-67.967-95.57a357.854 357.854 0 0 1 -34.264-17.806v-4.8c13.963-12.519 24.6-30.265 28.371-46.9.792-3.476 1.521-6.98 2.1-10.721a28.3 28.3 0 0 0 15-46.687v-29.359c0-16.973-7.424-32.985-19.86-42.834a46.118 46.118 0 0 0 -39.966-8.713c-5.872 1.383-12.365-1.518-17.993-4.346a64.11 64.11 0 0 0 -25.2-6.882c1.466-21.853 1.828-44.756 1.057-68.219a7 7 0 0 0 -6.011-6.7c-64.563-9.194-117.143-35.661-165.485-83.294a7 7 0 0 0 -9.828 0c-48.342 47.633-100.922 74.1-165.474 83.293a7 7 0 0 0 -6.011 6.707c-2.67 82.189 8.033 153.019 31.813 210.52 28.924 69.941 76.715 118.3 142.046 143.733a6.99 6.99 0 0 0 5.081 0c57.905-22.553 102.06-63.188 131.492-120.887a97.588 97.588 0 0 0 22.98 31.294v4.787c-9.945 6-19.16 10.611-26.978 14.367-2.51 1.2-4.955 2.352-7.336 3.472-35.1 16.517-58.282 27.428-67.948 95.544a7 7 0 0 0 6.932 7.986h266.518a7 7 0 0 0 6.933-7.985zm-65.29-196.4a14.327 14.327 0 0 1 -5.176 5.251 166.467 166.467 0 0 0 -1.793-25.541 14.594 14.594 0 0 1 1.576.758 14.361 14.361 0 0 1 5.393 19.532zm-48.1-93.358a32.373 32.373 0 0 1 28.067 6.057c9.111 7.218 14.551 19.127 14.551 31.858v20.921a27.939 27.939 0 0 0 -3.977-.736c-.64-3.353-1.355-6.87-2.165-10.59a7 7 0 0 0 -7.9-5.432c-31.116 4.775-53.565-1.232-68.629-18.367a7.071 7.071 0 0 0 -5.375-2.378 7 7 0 0 0 -5.293 2.556c-10.509 12.787-17.987 15.266-33.781 18.229a7 7 0 0 0 -5.55 5.392c-.812 3.728-1.529 7.251-2.169 10.611a28.223 28.223 0 0 0 -3.973.716v-20.922a49.974 49.974 0 0 1 23.509-42.281c13.706-8.458 29.762-8.846 45.207-1.1 5.65 2.842 16.165 8.128 27.481 5.466zm-96.5 98.544a14.339 14.339 0 0 1 1.792-25.456 166.547 166.547 0 0 0 -1.791 25.456zm9.151-109.537a64.2 64.2 0 0 0 -22.849 48.908v29.456a28.433 28.433 0 0 0 -3.53 4.918 28.082 28.082 0 0 0 -2.7 21.513 28.466 28.466 0 0 0 3.112 7.218c-22.872 55.85-59.319 95.58-108.426 118.148-111.799-51.394-136.562-181.712-137.081-284.678 51.092-11.443 96.043-33.863 137.082-68.363 41.038 34.5 85.992 56.917 137.084 68.36-.084 18.72-.997 37.012-2.691 54.52zm-134.392 258.12c-139.217-55.934-165.619-210.966-162.571-333.925 62.848-10.031 114.8-36.088 162.57-81.543 47.767 45.455 99.723 71.512 162.571 81.543.539 21.633.083 42.723-1.333 62.869a57.208 57.208 0 0 0 -11.984 3.709c1.282-16.5 1.905-33.579 1.834-50.972a7 7 0 0 0 -5.585-6.828c-52.927-10.934-99.019-33.945-140.911-70.344a7 7 0 0 0 -9.184 0c-41.892 36.4-87.985 59.41-140.911 70.344a7 7 0 0 0 -5.585 6.833c-.371 108.826 25.05 249.982 148.257 304.439a7.008 7.008 0 0 0 5.661 0c52.485-23.192 91.627-64.215 116.478-121.985a28.429 28.429 0 0 0 7.23 2.68c.371 2.392.808 4.682 1.278 6.935-27.288 60.634-70.264 103.097-127.815 126.245zm142.3-125.556c-3.454-15.164-5.486-29.847 2.122-66.592 12.132-2.518 21.846-5.917 32.226-16.411 16.893 15.569 39.661 21.562 69.22 18.229 7.169 35.419 5.147 49.862 1.749 64.78-3.32 14.627-13.484 30.741-26.081 41.263-.059.047-.117.1-.175.144-8.19 6.8-17.394 11.229-26.416 11.336-8.968-.106-18.115-4.492-26.268-11.226q-.2-.181-.42-.347c-12.542-10.52-22.651-26.589-25.957-41.176zm76.6 60.031v11.03a23.939 23.939 0 1 1 -47.878 0v-11.021a50.79 50.79 0 0 0 23.852 6.716h.132a50.833 50.833 0 0 0 23.887-6.725zm-149.046 102.137c9.064-53.447 27.151-61.958 58.807-76.855 2.408-1.133 4.882-2.3 7.43-3.518 6.211-2.984 13.283-6.5 20.921-10.793v.059a37.942 37.942 0 1 0 75.884 0v-.04c10.317 5.8 19.739 10.236 28.3 14.267 31.672 14.9 49.769 23.422 58.828 76.88z"/></svg>