<svg enable-background="new 0 0 128 128" viewBox="0 0 128 128" xmlns="http://www.w3.org/2000/svg"><g id="Layer_1"/><g id="Generate_Text"/><g id="Generate_Image"/><g id="View"/><g id="Robot_Arm"/><g id="Chat_Bot"/><g id="Generate_Video"/><g id="Network"/><g id="Protection"/><g id="Smartwatch"/><g id="Smarthome"/><g id="Smart_car"/><g id="VR"/><g id="Eye"/><g id="Smart_Eyeglass"/><g id="Brain"/><g id="Robot"><g><path d="m46.28 77.92c-1.04 1.55-3.54 4.61-6.81 8.27-3.26 3.66-7.29 7.91-11.37 11.84-10.98 10.56-16.62 13.39-20 13.39-1.25 0-2.19-.39-2.98-.92-2.92-1.95-4.86-6.57 2.86-25.99 4.18-10.54 9.65-21.33 11.74-24.43 4.92-7.33 14.88-9.28 22.2-4.36 3.55 2.38 5.96 6 6.78 10.2.82 4.19-.04 8.45-2.42 12z" fill="#2a428b"/><path d="m27.47 56.13c-1.97 5.27-2.97 10.73-2.96 16.23.005 2.51.137 5.683.565 9.255 1.061 8.868-2.996 17.641-10.689 22.179-2.752 1.623-4.751 2.206-6.286 2.206-1.25 0-2.19-.39-2.98-.92-1.02-.68-1.92-1.69-2.33-3.54.55-3.81 2.09-9.22 5.19-17.03 4.18-10.54 9.65-21.33 11.74-24.43 2.14-3.2 5.25-5.37 8.68-6.4z" fill="#3f57a0"/><path d="m122.88 110.5c-.79.53-1.73.92-2.98.92-3.38 0-9.02-2.83-20-13.39-8.17-7.86-16.1-17.01-18.18-20.11-2.39-3.55-3.24-7.81-2.42-12 .82-4.2 3.23-7.82 6.78-10.2 7.32-4.92 17.28-2.96 22.2 4.36 2.09 3.1 7.56 13.89 11.74 24.43 7.72 19.42 5.78 24.04 2.86 25.99z" fill="#2a428b"/><path d="m125.32 102.38c-.35 2.22-1.32 3.36-2.44 4.11-.79.53-1.73.92-2.98.92-1.253 0-2.816-.39-4.848-1.419-8.724-4.418-13.452-14.04-12.208-23.74.492-3.833.641-7.234.646-9.892.01-5.5-.99-10.96-2.96-16.22l-.92-2.44c3.42 1.02 6.52 3.19 8.67 6.38 2.09 3.1 7.56 13.89 11.74 24.43 3.34 8.401 4.87 14.031 5.3 17.871z" fill="#3f57a0"/><path d="m99.49 72.35c-.03 12.64-3.45 43.13-34.54 53.5-.31.1-.63.15-.95.15s-.64-.05-.95-.15c-31.09-10.37-34.51-40.86-34.54-53.5-.01-5 .9-9.99 2.71-14.81l.97-2.59c.44-1.17 1.56-1.95 2.81-1.95h58c1.25 0 2.37.78 2.81 1.95l.97 2.59c1.81 4.82 2.72 9.81 2.71 14.81z" fill="#27a6ff"/><path d="m99.49 72.35c-.02 9.93-2.15 30.87-18.13 44.43-3.19 1.98-6.8 3.7-10.9 5.07-.31.1-.63.15-.95.15s-.64-.05-.95-.15c-12.785-4.273-20.893-11.939-26.011-20.372-.66-1.088.144-2.48 1.417-2.478h.034 30c4.418 0 8-3.582 8-8v-16c0-4.418-3.582-8-8-8h-30c-4.418 0-8 3.582-8 8-.145 1.307-2.073 1.201-2.087-.114-.026-2.418.112-4.556.108-6.536-.01-5 .9-9.99 2.71-14.81l.2-.54h56.067c1.252 0 2.373.777 2.813 1.95l.97 2.59c1.809 4.82 2.719 9.81 2.709 14.81z" fill="#02c0fc"/><g fill="#a4eeff"><path d="m95.382 88c-.176 0-.353-.015-.531-.047-1.631-.291-2.717-1.849-2.426-3.48.696-3.904 1.055-7.986 1.063-12.132.01-4.283-.772-8.554-2.323-12.692l-.244-.649h-4.921c-1.657 0-3-1.343-3-3s1.343-3 3-3h7c1.25 0 2.37.775 2.809 1.946l.974 2.596c1.808 4.82 2.718 9.803 2.706 14.813-.01 4.493-.399 8.925-1.157 13.172-.26 1.453-1.524 2.473-2.95 2.473z"/><path d="m72 59h4c1.657 0 3-1.343 3-3 0-1.657-1.343-3-3-3h-4c-1.657 0-3 1.343-3 3 0 1.657 1.343 3 3 3z"/><path d="m71 109h-14c-1.657 0-3-1.343-3-3s1.343-3 3-3h14c1.657 0 3 1.343 3 3s-1.343 3-3 3z"/><path d="m87 72v16c0 4.41-3.59 8-8 8h-30c-4.41 0-8-3.59-8-8v-16c0-4.41 3.59-8 8-8h30c4.41 0 8 3.59 8 8z"/></g><path d="m79 64h-30c-.452 0-.892.047-1.323.119-1.047 1.353-1.677 3.043-1.677 4.881 0 13.255 10.745 24 24 24h14c.452 0 .892-.047 1.323-.119 1.047-1.353 1.677-3.043 1.677-4.881v-16c0-4.418-3.582-8-8-8z" fill="#e8f8fc"/><path d="m54.02 83c-1.656 0-3.005-1.343-3.005-3s1.339-3 2.995-3h.01c1.657 0 3 1.343 3 3s-1.343 3-3 3z" fill="#4d5460"/><path d="m64.02 83c-1.656 0-3.005-1.343-3.005-3s1.339-3 2.995-3h.01c1.657 0 3 1.343 3 3s-1.343 3-3 3z" fill="#4d5460"/><path d="m74.02 83c-1.656 0-3.005-1.343-3.005-3s1.339-3 2.995-3h.01c1.657 0 3 1.343 3 3s-1.343 3-3 3z" fill="#4d5460"/><path d="m40 16v18c0 1.66-1.34 3-3 3h-4c-4.96 0-9-4.04-9-9v-6c0-4.96 4.04-9 9-9h4c1.66 0 3 1.34 3 3z" fill="#2a428b"/><path d="m105 22v6c0 4.96-4.04 9-9 9h-5c-1.66 0-3-1.34-3-3v-18c0-1.66 1.34-3 3-3h5c4.96 0 9 4.04 9 9z" fill="#2a428b"/><path d="m102 31c-1.657 0-3-1.343-3-3v-6c0-.739-.271-1.449-.764-1.999-1.105-1.235-1-3.131.234-4.236 1.234-1.104 3.131-1.001 4.236.234 1.48 1.652 2.294 3.783 2.294 6.001v6c0 1.657-1.343 3-3 3z" fill="#3f57a0"/><g fill="#a4eeff"><path d="m83 45h-38c-4.418 0-8-3.582-8-8v-24c0-4.418 3.582-8 8-8h38c4.418 0 8 3.582 8 8v24c0 4.418-3.582 8-8 8z"/><path d="m83 45h-38c-4.418 0-8-3.582-8-8v-24c0-4.418 3.582-8 8-8h38c4.418 0 8 3.582 8 8v24c0 4.418-3.582 8-8 8z"/></g><path d="m58 28c-.768 0-1.535-.293-2.121-.879-1.037-1.035-2.721-1.035-3.758 0-1.172 1.172-3.07 1.172-4.242 0-1.172-1.171-1.172-3.071 0-4.242 3.375-3.376 8.867-3.376 12.242 0 1.172 1.171 1.172 3.071 0 4.242-.586.586-1.353.879-2.121.879z" fill="#384051"/><path d="m78 28c-.768 0-1.535-.293-2.121-.879-1.037-1.035-2.721-1.035-3.758 0-1.172 1.172-3.07 1.172-4.242 0-1.172-1.171-1.172-3.071 0-4.242 3.375-3.376 8.867-3.376 12.242 0 1.172 1.171 1.172 3.071 0 4.242-.586.586-1.353.879-2.121.879z" fill="#384051"/><path d="m83 48h-38c-6.065 0-11-4.935-11-11v-24c0-6.065 4.935-11 11-11h38c6.065 0 11 4.935 11 11v24c0 6.065-4.935 11-11 11zm-38-40c-2.757 0-5 2.243-5 5v24c0 2.757 2.243 5 5 5h38c2.757 0 5-2.243 5-5v-24c0-2.757-2.243-5-5-5z" fill="#27a6ff"/><path d="m91 23c-1.657 0-3-1.343-3-3v-7c0-2.757-2.243-5-5-5h-8c-1.657 0-3-1.343-3-3s1.343-3 3-3h8c6.065 0 11 4.935 11 11v7c0 1.657-1.343 3-3 3z" fill="#02c0fc"/><path d="m64 8h-2c-1.657 0-3-1.343-3-3s1.343-3 3-3h2c1.657 0 3 1.343 3 3s-1.343 3-3 3z" fill="#02c0fc"/></g></g><g id="Holographic"/><g id="Ai"/><g id="Chip"/><g id="Brain_AI"/><g id="Layer_22" display="none"/></svg>