<svg id="Layer_1" enable-background="new 0 0 500 500" viewBox="0 0 500 500" xmlns="http://www.w3.org/2000/svg"><g clip-rule="evenodd" fill-rule="evenodd"><path d="m115.204 151.023h222.88l65.776 65.777v222.88c0 10.464-8.561 19.026-19.026 19.026h-269.63c-10.465 0-19.026-8.561-19.026-19.026v-269.63c0-10.465 8.561-19.027 19.026-19.027z" fill="#60b7fe"/><path d="m362.546 458.706h-225.054v-132.815c0-12.557 10.274-22.831 22.831-22.831h179.391c12.558 0 22.832 10.274 22.832 22.831z" fill="#fa6e85"/><path d="m305.798 342.381h12.973c4.368 0 7.942 3.574 7.942 7.942v74.212c0 4.368-3.574 7.942-7.942 7.942h-12.973c-4.368 0-7.942-3.574-7.942-7.942v-74.212c0-4.369 3.574-7.942 7.942-7.942z" fill="#ffbf31"/><path d="m250.019 224.347 80.817-108.278h-45.911v-59.838c0-8.228-6.732-14.96-14.96-14.96h-39.892c-8.228 0-14.96 6.732-14.96 14.96v59.838h-45.911z" fill="#ffbf31"/><path d="m320.175 424.548c0 .764-.654 1.417-1.418 1.417h-12.976c-.775 0-1.418-.653-1.418-1.417v-74.217c0-.764.643-1.417 1.418-1.417h12.976c.764 0 1.418.653 1.418 1.417zm-1.418-88.678h-12.976c-7.975 0-14.466 6.488-14.466 14.461v74.217c0 7.975 6.491 14.461 14.466 14.461h12.976c7.975 0 14.46-6.486 14.46-14.461v-74.217c0-7.973-6.485-14.461-14.46-14.461zm78.565 103.82v-220.18l-61.956-61.954h-27.37l-52.767 70.703c-2.61 3.493-7.85 3.5-10.453 0l-52.772-70.703h-76.817c-6.897 0-12.503 5.61-12.503 12.506v269.628c0 6.896 5.606 12.506 12.503 12.506h15.757v-126.292c0-16.185 13.174-29.352 29.359-29.352h179.394c16.186 0 29.354 13.167 29.354 29.352v126.291h15.762c6.897.001 12.509-5.609 12.509-12.505zm-41.319 12.506v-126.292c0-8.993-7.315-16.308-16.307-16.308h-179.393c-8.991 0-16.312 7.315-16.312 16.308v126.291h212.012zm-140.911-329.593c3.6 0 6.524-2.922 6.524-6.522v-59.839c0-4.655 3.781-8.437 8.436-8.437h39.889c4.655 0 8.447 3.783 8.447 8.437v59.839c0 3.6 2.913 6.522 6.518 6.522h32.899l-67.803 90.855-67.809-90.855zm193.359 89.593-65.77-65.771c-1.226-1.226-2.885-1.916-4.617-1.916h-20.335l18.318-24.523c3.185-4.276.097-10.427-5.232-10.427h-39.384v-53.317c0-11.847-9.645-21.482-21.489-21.482h-39.889c-11.844 0-21.484 9.635-21.484 21.482v53.317h-39.384c-5.332 0-8.421 6.145-5.227 10.427l18.307 24.523h-67.078c-14.086 0-25.551 11.463-25.551 25.552v269.629c0 14.088 11.464 25.55 25.551 25.55h269.626c14.092 0 25.551-11.462 25.551-25.55v-222.876c0-1.731-.687-3.392-1.913-4.618z" fill="#1e2f3f"/></g></svg>