<svg id="OBJECT" height="512" viewBox="0 0 32 32" width="512" xmlns="http://www.w3.org/2000/svg"><g fill="#6b7eb5"><path d="m17 13h-2v-5a5 5 0 0 1 5-5h6v2h-6a3 3 0 0 0 -3 3z"/><path d="m26 29.31h-6a5 5 0 0 1 -5-5v-5.31h2v5.31a3 3 0 0 0 3 3h6z"/><path d="m7 15h6v2h-6z"/><path d="m19 15h7v2h-7z"/></g><rect fill="#ff7d97" height="12" rx="1" width="7" x="1" y="10"/><circle cx="16" cy="16" fill="#ff7d97" r="4"/><rect fill="#ffcd69" height="6" rx="1" width="6" x="25" y="1"/><rect fill="#ffcd69" height="6" rx="1" width="6" x="25" y="13"/><rect fill="#ffcd69" height="6" rx="1" width="6" x="25" y="25"/><path d="m4 11h4a1 1 0 0 0 -1-1h-5a1 1 0 0 0 -1 1v10a1 1 0 0 0 1 1h1v-10a1 1 0 0 1 1-1z" fill="#ff5d7d"/><path d="m14 17a4 4 0 0 1 4-4 4.05 4.05 0 0 1 .7.07 3.94 3.94 0 0 0 -2.7-1.07 4 4 0 0 0 -.7 7.93 4 4 0 0 1 -1.3-2.93z" fill="#ff5d7d"/><path d="m28 2h3a1 1 0 0 0 -1-1h-4a1 1 0 0 0 -1 1v4a1 1 0 0 0 1 1h1v-4a1 1 0 0 1 1-1z" fill="#ffc144"/><path d="m28 14h3a1 1 0 0 0 -1-1h-4a1 1 0 0 0 -1 1v4a1 1 0 0 0 1 1h1v-4a1 1 0 0 1 1-1z" fill="#ffc144"/><path d="m28 26h3a1 1 0 0 0 -1-1h-4a1 1 0 0 0 -1 1v4a1 1 0 0 0 1 1h1v-4a1 1 0 0 1 1-1z" fill="#ffc144"/></svg>