<svg version="1.2" xmlns="http://www.w3.org/2000/svg" viewBox="0 0 691 691" width="691" height="691">
	<title>deepl</title>
	<style>
		.s0 { fill: #0f2b46 } 
		.s1 { fill: #ffffff } 
	</style>
	<path class="s0" d="m344.8 1c1.8 0 2.9 0.1 4.2 0.2 1 0.1 2.3 0.3 2.9 0.4 0.6 0.1 1.7 0.4 2.4 0.5 0.7 0.2 2 0.6 2.9 0.9 0.8 0.2 2.2 0.7 3 1.1 0.8 0.3 2 0.9 2.6 1.2 0.7 0.4 54.6 31.6 119.8 69.5 65.2 37.8 119.1 69.1 119.8 69.6 0.7 0.5 1.9 1.4 2.7 2 0.7 0.6 2 1.7 2.8 2.5 0.8 0.8 1.9 1.9 2.4 2.5 0.5 0.5 1.2 1.4 1.6 2 0.5 0.6 1.1 1.4 1.4 1.9 0.4 0.5 1 1.5 1.4 2.2 0.4 0.7 1 1.9 1.3 2.5 0.3 0.7 0.9 1.9 1.2 2.7 0.3 0.8 0.7 1.9 0.9 2.5 0.2 0.7 0.5 1.7 0.7 2.4 0.1 0.7 0.4 1.9 0.5 2.7 0.2 0.7 0.4 2 0.5 2.7 0.1 1.2 0.1 9.7 0.2 140.5 0 99.4 0 139.7-0.1 140.8-0.1 0.8-0.2 2.1-0.3 2.9-0.1 0.7-0.3 1.7-0.4 2.1-0.1 0.5-0.3 1.4-0.4 2.1-0.2 0.6-0.6 1.8-0.8 2.6-0.3 0.8-0.7 2-1 2.6-0.2 0.7-0.6 1.6-0.9 2.1l-1.1 2.2c-0.4 0.7-1.1 1.8-1.5 2.5-0.4 0.6-1.1 1.6-1.6 2.2-0.4 0.5-1 1.3-1.4 1.7-0.4 0.5-1.2 1.4-1.9 2.1-0.7 0.7-1.7 1.6-2.2 2.1-0.6 0.5-1.5 1.3-2.1 1.7-0.5 0.4-1.5 1.1-2.2 1.5-0.6 0.5-32.2 18.8-70.1 40.8-38 22-69.1 40.1-69.2 40.2-0.1 0.1-2.2 1.3-4.7 2.7-2.5 1.5-5 2.9-5.5 3.2-0.5 0.3-1 0.6-1.2 0.8-0.2 0.1-0.8 0.6-1.4 1.1l-1.8 1.8c-0.4 0.5-1 1.3-1.4 1.8-0.3 0.4-0.9 1.4-1.3 2.1-0.4 0.7-0.8 1.7-1 2.2-0.2 0.5-0.5 1.4-0.6 2-0.2 0.5-0.4 1.4-0.4 2-0.2 0.8-0.2 2.2-0.3 7.3 0 3.5-0.1 13.5-0.2 22.4-0.1 14.5-0.1 18.9 0.1 45.9 0.1 16.5 0.1 29.9 0.1 29.9l-57.5-33.3c-31.6-18.4-58-33.7-58.6-34-0.6-0.3-54.4-31.6-119.6-69.4-65.2-37.8-119.1-69.2-119.8-69.7-0.7-0.4-1.8-1.2-2.4-1.7-0.6-0.5-1.7-1.4-2.4-2-0.6-0.6-1.7-1.6-2.3-2.3-0.6-0.7-1.4-1.6-1.8-2.1-0.4-0.5-1-1.3-1.4-1.9-0.4-0.5-1-1.5-1.4-2.1-0.4-0.6-1-1.7-1.4-2.5-0.4-0.7-1-2-1.3-2.8-0.4-0.8-0.9-2.1-1.2-2.9-0.2-0.8-0.6-2.1-0.8-2.7-0.1-0.7-0.4-1.7-0.5-2.3-0.1-0.6-0.2-1.5-0.3-2.2-0.1-0.6-0.3-2-0.3-3-0.2-1.6-0.2-18-0.2-139.5 0-122.2 0-137.9 0.2-139.5 0-1 0.2-2.3 0.3-2.9 0.1-0.6 0.2-1.7 0.4-2.4 0.1-0.6 0.4-1.7 0.5-2.3l0.9-2.7c0.2-0.8 0.8-2.2 1.1-3 0.4-0.8 1.1-2.2 1.6-3 0.4-0.9 1.2-2.2 1.7-2.9 0.5-0.7 1.2-1.8 1.7-2.4 0.5-0.6 1.4-1.6 2-2.3 0.6-0.7 1.6-1.8 2.3-2.4 0.7-0.6 1.7-1.5 2.3-2 0.6-0.4 1.8-1.3 2.7-1.9 0.8-0.6 6.7-4.1 13.1-7.7 6.3-3.7 59.5-34.7 118.2-68.9 58.8-34.2 107.5-62.5 108.4-62.9 0.8-0.5 2.3-1.1 3.2-1.5 0.9-0.4 2.3-0.8 3-1.1 0.7-0.2 1.9-0.5 2.6-0.7 0.7-0.1 1.9-0.4 2.6-0.5 0.7-0.1 1.8-0.2 2.4-0.3 0.6-0.1 1.1-0.1 1.1-0.2z"/>
	<path class="s1" d="m278.8 178.2c1.6 0 3.2 0.1 4 0.2 0.8 0.1 2 0.3 2.7 0.4 0.8 0.2 2 0.4 2.8 0.6 0.7 0.2 1.9 0.6 2.6 0.8 0.7 0.2 1.7 0.6 2.2 0.8 0.5 0.2 1.7 0.7 2.6 1.1 0.9 0.5 2.1 1.1 2.8 1.5 0.6 0.3 1.6 1 2.1 1.3 0.6 0.4 1.5 1 1.9 1.4 0.5 0.3 1.3 0.9 1.8 1.4 0.5 0.4 1.7 1.6 2.8 2.6 1 1.1 2.3 2.4 2.8 3 0.4 0.6 1.2 1.5 1.6 2.1 0.4 0.6 1.2 1.8 1.7 2.5 0.5 0.8 1.2 2.2 1.7 3.2 0.5 0.9 1.1 2.4 1.5 3.2 0.3 0.9 0.7 2 0.8 2.4 0.2 0.5 0.4 1.3 0.6 1.8 0.1 0.5 0.3 1.4 0.5 2.1 0.1 0.6 0.3 1.6 0.4 2.1 0.1 0.5 0.2 1.5 0.3 2.3 0.1 0.7 0.2 2.3 0.2 3.4v3.7c-0.1 0.8-0.2 1.9-0.3 2.4 0 0.4-0.2 1.5-0.3 2.2-0.2 0.8-0.4 1.8-0.5 2.4-0.2 0.8-0.2 1.1-0.2 1.1 0.1 0.1 24.5 14.3 108.3 63.2l0.9-0.9c0.5-0.5 1.3-1.2 1.6-1.5 0.4-0.3 1.4-1.1 2.1-1.6 0.7-0.6 1.9-1.4 2.7-1.9 0.7-0.4 1.9-1.1 2.8-1.6 0.8-0.4 2.1-1 2.9-1.4 0.8-0.3 2.2-0.8 3-1.1 0.8-0.2 2.2-0.7 3.2-0.9 0.9-0.2 2.2-0.5 2.9-0.6 0.6-0.1 1.7-0.3 2.3-0.3 0.7-0.1 2.2-0.2 4.4-0.2 2.7 0 3.7 0.1 4.8 0.2 0.7 0.1 1.9 0.3 2.7 0.4 0.7 0.2 1.9 0.4 2.7 0.6 0.7 0.2 2 0.6 2.9 0.9 0.8 0.3 2 0.7 2.5 1 0.5 0.2 1.6 0.7 2.4 1.1 0.8 0.4 2.1 1 2.8 1.5 0.8 0.5 1.7 1 2.1 1.3 0.3 0.3 1 0.7 1.4 1.1 0.5 0.3 1.3 0.9 1.8 1.4 0.5 0.4 1.5 1.4 2.3 2.1 0.8 0.8 1.8 1.9 2.3 2.4 0.5 0.6 1.3 1.5 1.7 2.1 0.5 0.6 1.2 1.6 1.7 2.3 0.4 0.6 1 1.6 1.4 2.3 0.4 0.6 0.9 1.5 1.1 2 0.2 0.4 0.7 1.5 1.1 2.3 0.3 0.8 0.8 2.1 1.1 2.8 0.2 0.8 0.6 1.9 0.8 2.6 0.2 0.7 0.4 1.9 0.6 2.6 0.1 0.8 0.3 2 0.4 2.8 0.1 0.8 0.3 2.3 0.3 3.4q0.1 2 0 3.9c0 1.1-0.1 2.5-0.2 3.2-0.1 0.7-0.3 1.8-0.4 2.6-0.2 0.7-0.4 1.8-0.6 2.5-0.2 0.7-0.6 2-0.8 2.9-0.4 0.9-0.9 2.3-1.2 3.1-0.4 0.8-0.9 1.9-1.1 2.3-0.2 0.5-0.7 1.4-1.1 2-0.4 0.7-0.9 1.5-1.2 1.9-0.2 0.4-0.8 1.3-1.3 1.9-0.4 0.6-1.2 1.6-1.6 2.1-0.5 0.5-1.4 1.6-2.1 2.3-0.7 0.7-1.8 1.8-2.4 2.3-0.6 0.6-1.6 1.4-2.2 1.8-0.5 0.4-1.5 1.2-2.2 1.6-0.6 0.4-1.6 1-2.1 1.3-0.5 0.3-1.5 0.9-2.3 1.2-0.7 0.4-1.8 0.9-2.4 1.2-0.5 0.2-1.5 0.6-2.1 0.8-0.6 0.2-1.8 0.6-2.6 0.8-0.7 0.2-2 0.5-2.9 0.7-0.8 0.2-2.2 0.4-3.1 0.5-1.5 0.2-2.2 0.3-4.9 0.3-2.5 0-3.5-0.1-4.6-0.2-0.8-0.1-2-0.3-2.8-0.4l-2.8-0.7c-0.8-0.2-2.2-0.6-3-0.9-0.9-0.3-2.2-0.8-2.8-1-0.7-0.3-1.9-0.9-2.7-1.3-0.8-0.4-2-1.1-2.6-1.5-0.6-0.3-1.4-0.8-1.7-1.1-0.4-0.3-1.1-0.7-1.5-1.1-0.5-0.3-1.3-1-1.9-1.5-0.5-0.4-1.7-1.6-2.6-2.4-0.8-0.9-1.9-2.1-2.4-2.6-0.5-0.6-1.2-1.5-1.5-2-0.4-0.5-1-1.3-1.3-1.8-0.4-0.5-1-1.5-1.4-2.2-0.4-0.7-1-1.9-1.4-2.6-0.3-0.8-0.9-2-1.2-2.8-0.3-0.8-0.7-1.9-0.9-2.6-0.2-0.6-0.5-1.7-0.7-2.5-0.2-0.8-0.5-1.9-0.6-2.5-0.1-0.7-0.3-1.7-0.4-2.4 0-0.7-0.2-2.1-0.2-3.2-0.1-1.2-0.1-2.6 0-3.8 0-1 0.2-2.5 0.2-3.2 0.1-0.7 0.4-2.1 0.6-3.1 0.1-0.9 0.5-2.3 0.7-2.9 0.1-0.7 0.3-1.4 0.4-1.5q0.1-0.2-0.1-0.1c-0.1 0.1-14.7-8.3-107.7-62.3l-1.6 1.4c-0.8 0.8-2 1.9-2.6 2.4-0.6 0.5-1.6 1.3-2.2 1.7-0.7 0.5-1.7 1.2-2.2 1.5-0.6 0.4-1.8 1-2.7 1.5-0.9 0.5-2.1 1.1-2.8 1.3-0.6 0.3-1.8 0.8-2.5 1-0.7 0.3-1.9 0.6-2.7 0.8-0.7 0.2-1.7 0.5-2.3 0.6-0.6 0.1-1.4 0.3-1.9 0.4-0.5 0-1.4 0.2-2 0.2-0.7 0.1-2.3 0.2-4.5 0.2-2.9 0-3.6-0.1-5-0.3-0.9-0.1-2.3-0.3-3-0.4-0.7-0.2-1.9-0.5-2.8-0.7-0.8-0.2-2-0.6-2.7-0.9-0.7-0.2-1.7-0.6-2.3-0.9-0.5-0.2-1.7-0.7-2.5-1.2-0.9-0.4-2.2-1.1-2.9-1.6-0.8-0.5-1.9-1.2-2.6-1.7-0.6-0.5-1.6-1.2-2-1.6-0.5-0.4-1.4-1.2-2.1-1.9-0.7-0.7-1.8-1.8-2.4-2.5-0.6-0.6-1.5-1.7-2-2.3-0.5-0.6-1.3-1.7-1.8-2.5-0.5-0.8-1.2-1.8-1.4-2.3-0.3-0.4-0.8-1.3-1.1-2-0.3-0.7-0.8-1.7-1.1-2.4-0.3-0.6-0.7-1.9-1.1-2.9-0.3-0.9-0.7-2.2-0.8-2.7-0.2-0.6-0.4-1.6-0.5-2.3-0.2-0.8-0.4-2-0.5-2.9-0.2-1-0.2-2.4-0.3-4.2 0-1.6 0-3.2 0.1-4.1 0-0.7 0.2-2 0.3-2.8 0.1-0.8 0.3-1.8 0.4-2.2 0-0.4 0.3-1.3 0.4-2 0.2-0.7 0.5-1.8 0.8-2.5 0.2-0.7 0.6-1.8 0.8-2.5 0.3-0.6 0.8-1.9 1.2-2.7 0.5-0.9 1-2 1.3-2.4 0.2-0.5 0.8-1.4 1.2-2 0.4-0.6 1.1-1.6 1.5-2.2 0.5-0.6 1.2-1.6 1.7-2.2 0.5-0.5 1.6-1.7 2.4-2.6 0.9-0.8 2.2-2 2.9-2.6 0.7-0.6 1.9-1.5 2.5-2 0.7-0.4 1.8-1.2 2.5-1.6 0.7-0.4 1.9-1.1 2.6-1.5 0.8-0.3 1.9-0.9 2.7-1.2 0.7-0.3 2-0.8 2.7-1 0.8-0.3 2.2-0.7 3.1-0.9 0.8-0.2 2.2-0.5 3-0.7 0.8-0.1 2-0.2 2.7-0.3 0.6-0.1 1.3-0.1 1.6-0.2zm125.1 170.8c0.1 0 4.5 2.5 9.9 5.5 5.3 3.1 9.7 5.6 9.8 5.6 0 0.1-23.8 13.9-52.8 30.8-50.7 29.5-52.8 30.7-52.7 31 0 0.1 0.2 0.9 0.3 1.7 0.2 0.8 0.4 2 0.5 2.7 0.1 0.7 0.2 1.9 0.3 2.8 0 0.9 0.1 2.3 0 3.6 0 1.2-0.1 2.7-0.2 3.5-0.1 0.7-0.2 1.8-0.3 2.3-0.1 0.5-0.3 1.3-0.4 1.9-0.1 0.5-0.4 1.5-0.5 2.2-0.2 0.7-0.5 1.7-0.7 2.3-0.2 0.6-0.6 1.5-0.8 2-0.2 0.5-0.7 1.7-1.1 2.6-0.4 0.8-1 2-1.3 2.5-0.3 0.5-1 1.6-1.6 2.5-0.5 0.8-1.5 2.2-2.1 2.9-0.6 0.8-1.8 2.1-2.7 3-0.9 0.9-2.1 2.1-2.7 2.6-0.6 0.6-1.6 1.3-2.1 1.7-0.5 0.4-1.5 1.1-2.1 1.5-0.5 0.4-1.5 1-2 1.3-0.5 0.3-1.7 0.9-2.6 1.3-0.9 0.5-2.1 1-2.8 1.3-0.6 0.2-1.6 0.6-2.2 0.8-0.6 0.2-1.5 0.5-2.1 0.6-0.6 0.2-1.5 0.4-2 0.5-0.6 0.1-1.4 0.3-1.9 0.4-0.5 0.1-1.6 0.2-2.3 0.3-0.8 0.1-2.3 0.2-3.4 0.2-1.2 0.1-2.6 0-3.6 0-0.9-0.1-2.1-0.2-2.7-0.3-0.7-0.1-1.9-0.3-2.8-0.5-0.8-0.1-1.9-0.4-2.4-0.5-0.5-0.2-1.4-0.5-2.1-0.6-0.6-0.3-1.6-0.6-2.2-0.9-0.7-0.2-1.9-0.8-2.8-1.2-0.8-0.4-2-1-2.6-1.4-0.6-0.3-1.7-1-2.3-1.4-0.7-0.5-1.7-1.1-2.2-1.5-0.5-0.4-1.3-1.1-1.9-1.6-0.5-0.4-1.7-1.6-2.6-2.5-1-1-2.1-2.3-2.6-2.8-0.4-0.6-1.1-1.4-1.4-1.9-0.3-0.4-0.9-1.2-1.2-1.7-0.4-0.6-0.9-1.5-1.3-2.1-0.3-0.6-0.8-1.4-1-1.9-0.2-0.4-0.7-1.4-1-2.2-0.4-0.8-0.8-2.1-1.1-2.8-0.3-0.8-0.7-2.2-0.9-3.2-0.3-1-0.6-2.3-0.7-3-0.1-0.6-0.3-1.7-0.4-2.4-0.1-1-0.1-2-0.1-4.8 0-3 0-3.7 0.2-5.1 0.1-0.9 0.3-2.3 0.5-3.1 0.2-0.9 0.5-2.3 0.8-3.2 0.2-0.8 0.6-2.1 0.9-2.8 0.2-0.7 0.7-1.9 1-2.6 0.3-0.7 0.8-1.6 1-2 0.2-0.4 0.7-1.2 0.9-1.7 0.3-0.5 0.9-1.5 1.4-2.2 0.5-0.7 1.2-1.8 1.7-2.4 0.5-0.6 1.2-1.5 1.7-2 0.4-0.5 1.5-1.7 2.4-2.5 0.9-0.9 2.3-2.1 3-2.7 0.8-0.7 1.9-1.5 2.4-1.8 0.6-0.4 1.4-1 1.9-1.3 0.5-0.3 1.8-1 2.8-1.5 1.1-0.6 2.5-1.2 3.1-1.4 0.6-0.3 1.7-0.7 2.4-0.9 0.8-0.3 1.9-0.6 2.6-0.8 0.7-0.1 1.8-0.4 2.6-0.5 0.7-0.2 1.8-0.4 2.5-0.4 0.7-0.1 2.1-0.2 3.1-0.3h3.8c1 0.1 2.5 0.2 3.1 0.3 0.7 0 1.8 0.2 2.6 0.4 0.7 0.1 1.9 0.4 2.7 0.6 0.7 0.2 2.1 0.6 2.9 0.9 0.8 0.2 2.1 0.7 2.7 1 0.7 0.3 1.9 0.9 2.8 1.3 0.9 0.5 2.2 1.2 2.8 1.6l2.1 1.4c0.5 0.4 1.4 1 1.9 1.4 0.5 0.4 1.5 1.4 2.4 2.2 0.8 0.7 1.7 1.6 2.5 2.5l47.6-27.5c26.3-15.2 47.7-27.6 47.7-27.6z"/>
</svg>