<svg height="512pt" viewBox="0 0 512.00001 512" width="512pt" xmlns="http://www.w3.org/2000/svg"><path d="m195.386719 76.972656-57.523438-66.132812c-5.992187-6.886719-14.65625-10.839844-23.765625-10.839844s-17.773437 3.953125-23.765625 10.839844l-57.519531 66.132812c-11.460938 13.175782-10.027344 33.09375 3.015625 44.6875 21.402344 19.027344 46.71875-5.558594 46.71875-5.558594v247.214844h63.101563v-247.21875s25.375 24.84375 46.722656 5.5625c12.949218-11.699218 14.476562-31.511718 3.015625-44.6875zm0 0" fill="#b0f0ef"/><path d="m145.632812 235.496094c-24.375-3.980469-46.75-3.613282-63.101562-2.230469v130.050781h63.101562zm0 0" fill="#76e7e7"/><path d="m228.164062 397.480469c0-63.25-51.074218-114.519531-114.082031-114.519531-63.003906 0-114.082031 51.269531-114.082031 114.519531 0 63.246093 51.078125 114.519531 114.082031 114.519531 63.007813 0 114.082031-51.273438 114.082031-114.519531zm0 0" fill="#60daa8"/><path d="m58.921875 397.480469c0-53.019531 35.910156-97.625 84.636719-110.664063-9.398438-2.511718-19.289063-3.859375-29.476563-3.859375-63.003906 0-114.082031 51.273438-114.082031 114.523438 0 63.246093 51.078125 114.519531 114.082031 114.519531 10.191407 0 20.078125-1.34375 29.476563-3.859375-48.726563-13.039063-84.636719-57.640625-84.636719-110.660156zm0 0" fill="#00ce8e"/><path d="m159.109375 377.636719h-25.257813v-25.355469c0-10.960938-8.851562-19.84375-19.769531-19.84375s-19.765625 8.882812-19.765625 19.84375v25.355469h-25.261718c-10.917969 0-19.769532 8.882812-19.769532 19.84375 0 10.957031 8.851563 19.84375 19.769532 19.84375h25.257812v25.355469c0 10.960937 8.851562 19.84375 19.769531 19.84375s19.769531-8.882813 19.769531-19.84375v-25.355469h25.257813c10.917969 0 19.769531-8.882813 19.769531-19.84375 0-10.960938-8.851562-19.84375-19.769531-19.84375zm0 0" fill="#fffcdc"/><path d="m479.21875 435.027344-57.519531 66.132812c-5.992188 6.886719-14.65625 10.839844-23.765625 10.839844s-17.773438-3.953125-23.765625-10.839844l-57.519531-66.132812c-11.460938-13.175782-10.03125-33.09375 3.011718-44.6875 21.402344-19.023438 46.722656 5.5625 46.722656 5.5625v-247.21875h63.101563v247.21875s25.375-24.84375 46.71875-5.5625c12.953125 11.699218 14.476563 31.511718 3.015625 44.6875zm0 0" fill="#b0f0ef"/><path d="m429.46875 276.503906c-24.378906 3.980469-46.753906 3.613282-63.101562 2.230469v-130.050781h63.101562zm0 0" fill="#76e7e7"/><path d="m512 114.519531c0-63.246093-51.078125-114.519531-114.082031-114.519531-63.007813 0-114.082031 51.273438-114.082031 114.519531 0 63.25 51.074218 114.519531 114.082031 114.519531 63.003906 0 114.082031-51.269531 114.082031-114.519531zm0 0" fill="#ff8a98"/><path d="m342.753906 114.519531c0-53.019531 35.917969-97.621093 84.644532-110.660156-9.398438-2.515625-19.292969-3.859375-29.480469-3.859375-63.007813 0-114.082031 51.273438-114.082031 114.519531 0 63.25 51.074218 114.523438 114.082031 114.523438 10.1875 0 20.078125-1.347657 29.476562-3.863281-48.726562-13.039063-84.640625-57.636719-84.640625-110.660157zm0 0" fill="#fd5c6f"/><path d="m333.121094 114.484375v.074219c0 10.9375 8.867187 19.808594 19.804687 19.808594h89.980469c10.9375 0 19.808594-8.871094 19.808594-19.808594v-.074219c0-10.941406-8.871094-19.808594-19.808594-19.808594h-89.980469c-10.9375 0-19.804687 8.867188-19.804687 19.808594zm0 0" fill="#fffcdc"/></svg>