<svg id="Icons" height="512" viewBox="0 0 60 60" width="512" xmlns="http://www.w3.org/2000/svg"><path d="m56 9v39a5 5 0 0 1 -5 5h-42a5 5 0 0 1 -5-5v-39l1-1h50z" fill="#2a2a49"/><path d="m56 6v3h-52v-3a5 5 0 0 1 5-5h42a5 5 0 0 1 5 5z" fill="#447"/><path d="m25.872 47h-1.872v10a2.006 2.006 0 0 1 -2 2h-6a2.006 2.006 0 0 1 -2-2v-10h-1.872a2.16 2.16 0 0 1 -1.57-3.609l6.872-7.68a2.087 2.087 0 0 1 3.14 0l6.872 7.68a2.16 2.16 0 0 1 -1.57 3.609z" fill="#25e572"/><path d="m34.128 47h1.872v-10a2.006 2.006 0 0 1 2-2h6a2.006 2.006 0 0 1 2 2v10h1.871a2.16 2.16 0 0 1 1.57 3.609l-6.872 7.68a2.087 2.087 0 0 1 -3.14 0l-6.872-7.68a2.16 2.16 0 0 1 1.571-3.609z" fill="#ff4d4d"/><g fill="#fff"><path d="m42 26h-2v-8h2a1 1 0 0 0 0-2h-6a1 1 0 0 0 0 2h2v8h-2a1 1 0 0 0 0 2h6a1 1 0 0 0 0-2z"/><path d="m21.5 16a3.5 3.5 0 0 0 -3.5 3.5v7.5a1 1 0 0 0 2 0v-4h3v4a1 1 0 0 0 2 0v-7.5a3.5 3.5 0 0 0 -3.5-3.5zm-1.5 5v-1.5a1.5 1.5 0 0 1 3 0v1.5z"/><path d="m30.5 16h-2.5a1 1 0 0 0 -1 1v10a1 1 0 0 0 2 0v-4h1.5a3.5 3.5 0 0 0 0-7zm0 5h-1.5v-3h1.5a1.5 1.5 0 0 1 0 3z"/></g><path d="m10 6h-1a1 1 0 0 1 0-2h1a1 1 0 0 1 0 2z" fill="#ff4d4d"/><path d="m15 6h-1a1 1 0 0 1 0-2h1a1 1 0 0 1 0 2z" fill="#f7bb26"/><path d="m20 6h-1a1 1 0 0 1 0-2h1a1 1 0 0 1 0 2z" fill="#25e572"/><path d="m46 6h-16a1 1 0 0 1 0-2h16a1 1 0 0 1 0 2z" fill="#2a2a49"/></svg>