<svg enable-background="new 0 0 512 512" viewBox="0 0 512 512" xmlns="http://www.w3.org/2000/svg"><g id="_x30_5_Php"><g><path d="m479.026 41.23v376.926c0 15.436-12.514 27.95-27.95 27.95h-280.228c-15.436 0-27.95-12.514-27.95-27.95v-376.926c0-15.436 12.514-27.95 27.95-27.95h280.228c15.436.001 27.95 12.514 27.95 27.95z" fill="#0176fe"/><path d="m411.084 141.094v329.126c0 15.739-12.759 28.498-28.498 28.498h-279.132c-15.739 0-28.498-12.759-28.498-28.498v-375.83c0-15.739 12.759-28.498 28.498-28.498h232.428z" fill="#fff"/><path d="m411.084 141.094h-58.721c-9.103 0-16.482-7.379-16.482-16.482v-58.72z" fill="#fff"/><path d="m312.105 166.506v103.61c0 11.543-9.358 20.901-20.901 20.901h-237.33c-11.543 0-20.901-9.358-20.901-20.901v-103.61c0-11.543 9.358-20.901 20.901-20.901h237.33c11.543 0 20.901 9.357 20.901 20.901z" fill="#f5a218"/><path d="m67.656 298.298v39.935c0 4.022 3.262 7.282 7.282 7.282s7.282-3.259 7.282-7.282v-39.935h208.984c15.54 0 28.183-12.643 28.183-28.183v-103.61c0-15.54-12.643-28.18-28.183-28.18h-208.985v-43.927c0-11.697 9.514-21.214 21.214-21.214h225.169v51.428c0 13.103 10.657 23.765 23.76 23.765h51.459v321.846c0 11.697-9.514 21.214-21.214 21.214h-279.174c-11.7 0-21.214-9.517-21.214-21.214v-94.613c0-4.022-3.262-7.282-7.282-7.282s-7.282 3.259-7.282 7.282v94.613c0 19.728 16.052 35.777 35.777 35.777h279.174c19.726 0 35.777-16.049 35.777-35.777v-16.834h32.691c19.427 0 35.232-15.805 35.232-35.232v-376.927c0-19.425-15.805-35.23-35.232-35.23h-280.225c-19.427 0-35.232 15.805-35.232 35.23v17.391h-32.184c-19.726 0-35.777 16.049-35.777 35.777v43.926h-13.781c-15.54 0-28.183 12.641-28.183 28.18v103.61c0 15.54 12.643 28.183 28.183 28.183h13.781zm284.706-164.484c-5.072 0-9.197-4.127-9.197-9.201v-41.116c5.65 5.647-19.251-19.242 50.34 50.316h-41.143zm-202.182-92.584c0-11.396 9.273-20.667 20.669-20.667h280.226c11.396 0 20.669 9.27 20.669 20.667v376.927c0 11.396-9.273 20.669-20.669 20.669h-32.691v-297.731c0-2.019-1.01-4.027-2.133-5.151-84.53-84.509-74.285-74.314-75.548-75.443-1.404-1.258-3.231-1.881-4.843-1.881h-185.68zm-109.924 228.885v-103.61c0-7.509 6.111-13.617 13.62-13.617h237.328c7.509 0 13.62 6.108 13.62 13.617v103.61c0 7.509-6.111 13.62-13.62 13.62h-237.329c-7.509 0-13.619-6.111-13.619-13.62z"/><path d="m203.043 337.59c-2.844-2.844-7.452-2.844-10.297 0l-45.633 45.635c-2.844 2.842-2.844 7.452 0 10.297l45.633 45.638c2.844 2.844 7.452 2.844 10.297 0 2.844-2.842 2.844-7.452 0-10.297l-40.485-40.489 40.485-40.487c2.844-2.844 2.844-7.455 0-10.297z"/><path d="m282.998 439.16c2.844 2.844 7.452 2.844 10.297 0l45.633-45.638c2.844-2.844 2.844-7.455 0-10.297l-45.633-45.635c-2.844-2.844-7.452-2.844-10.297 0-2.844 2.842-2.844 7.452 0 10.297l40.485 40.487-40.485 40.489c-2.845 2.845-2.845 7.455 0 10.297z"/><path d="m238.024 452.073 31.729-123.782c1-3.897-1.351-7.865-5.248-8.863-3.911-.996-7.865 1.353-8.86 5.245l-31.729 123.782c-1 3.897 1.351 7.865 5.248 8.863 3.982 1.012 7.879-1.424 8.86-5.245z"/><path d="m74.279 261.141c4.02 0 7.282-3.259 7.282-7.282l-.014-23.646h13.658c15.089 0 27.367-12.278 27.367-27.367s-12.278-27.367-27.367-27.367h-13.687c-8.007 0-14.52 6.516-14.52 14.525v63.856c-.001 4.022 3.261 7.281 7.281 7.281zm20.925-71.099c7.059 0 12.804 5.743 12.804 12.804s-5.746 12.804-12.804 12.804h-13.667l-.019-25.609h13.686z"/><path d="m229.789 261.141c4.02 0 7.282-3.259 7.282-7.282l-.014-23.646h13.658c15.089 0 27.367-12.278 27.367-27.367s-12.278-27.367-27.367-27.367h-13.681c-8.007 0-14.525 6.516-14.525 14.525v63.856c-.001 4.022 3.26 7.281 7.28 7.281zm20.925-71.099c7.059 0 12.804 5.743 12.804 12.804s-5.746 12.804-12.804 12.804h-13.667l-.014-25.609h13.681z"/><path d="m149.166 261.141c4.02 0 7.282-3.259 7.282-7.282v-28.268h32.184v28.268c0 4.022 3.262 7.282 7.282 7.282s7.282-3.259 7.282-7.282v-71.099c0-4.022-3.262-7.282-7.282-7.282s-7.282 3.259-7.282 7.282v28.268h-32.184v-28.268c0-4.022-3.262-7.282-7.282-7.282s-7.282 3.259-7.282 7.282v71.099c0 4.023 3.262 7.282 7.282 7.282z"/></g></g><g id="Layer_1"/></svg>