<svg width="212" height="40" viewBox="0 0 212 40" fill="none" xmlns="http://www.w3.org/2000/svg">
<path d="M3.3448 32.8196C10.7305 32.8196 16.724 26.8165 16.724 19.4083V9.35202C16.724 7.49573 15.2299 5.99707 13.3792 5.99707C11.5285 5.99707 10.0344 7.49573 10.0344 9.35202V19.4083C10.0344 23.1124 7.03767 26.1182 3.3448 26.1182C1.49413 26.1182 0 27.6169 0 29.4647C0 31.3125 1.49413 32.8196 3.3448 32.8196Z" fill="white"/>
<path d="M59.4764 26.1182C55.7835 26.1182 52.7868 23.1124 52.7868 19.4083V19.0848H55.4439C57.2946 19.0848 58.7972 17.5776 58.7972 15.7213C58.7972 13.865 57.2946 12.3578 55.4439 12.3578H52.7868V9.35202C52.7868 7.50424 51.2926 5.99707 49.442 5.99707C47.5913 5.99707 46.0971 7.49573 46.0971 9.35202V19.4083C46.0971 26.8165 52.0906 32.8196 59.4764 32.8196C61.327 32.8196 62.8212 31.321 62.8212 29.4647C62.8212 27.6084 61.327 26.1182 59.4764 26.1182Z" fill="white"/>
<path d="M44.1786 14.7081C44.1786 14.6996 44.1786 14.6996 44.1786 14.7081C44.1871 14.6996 44.1956 14.6996 44.1956 14.6996C43.1429 11.9236 41.1734 9.48831 38.4229 7.88748C32.0389 4.17489 23.8891 6.37179 20.2132 12.7922C16.5288 19.204 18.7191 27.4041 25.0946 31.1081C29.7892 33.833 35.4431 33.3561 39.5689 30.3588L39.5435 30.3248C40.4943 29.7372 41.1225 28.6813 41.1225 27.4807C41.1225 25.6329 39.6283 24.1343 37.7862 24.1343C36.8948 24.1343 36.0798 24.4834 35.4855 25.0624C33.4821 26.4163 30.8164 26.6292 28.5667 25.386L42.0393 19.1104C42.8203 18.872 43.5165 18.344 43.9494 17.5777C44.4758 16.6665 44.5267 15.6192 44.1786 14.7081ZM35.0865 13.6863C35.4855 13.9162 35.8421 14.1801 36.1732 14.4696L25.0861 19.6213C25.0606 18.4377 25.3493 17.2371 25.9775 16.1386C27.8197 12.9369 31.8946 11.8385 35.0865 13.6863Z" fill="white"/>
<path d="M71.5014 0.00289201C73.0026 -0.0813831 73.859 1.6954 72.8615 2.82484L63.9829 12.8782C62.9432 14.0555 61.0055 13.3029 61.0258 11.7296L61.0786 7.6506C61.0855 7.11616 60.8414 6.60964 60.4197 6.28342L57.2007 3.7936C55.9592 2.83329 56.5739 0.840888 58.1387 0.753041L71.5014 0.00289201Z" fill="#9D64ED"/>
<path d="M72.4963 32.7809C71.2618 32.7809 70.1646 32.5142 69.2044 31.9808C68.2596 31.4321 67.5128 30.6778 66.9642 29.7176C66.4308 28.7575 66.1641 27.6602 66.1641 26.4258C66.1641 25.1761 66.4155 24.0788 66.9184 23.134C67.4366 22.1738 68.1453 21.4195 69.0444 20.8708C69.9436 20.3222 70.9799 20.0478 72.1534 20.0478C73.3116 20.0478 74.3175 20.3145 75.1709 20.848C76.0396 21.3661 76.7101 22.09 77.1826 23.0197C77.655 23.9493 77.8912 25.0085 77.8912 26.1972C77.8912 26.441 77.815 26.6392 77.6626 26.7916C77.5102 26.9287 77.3121 26.9973 77.0683 26.9973H67.8328C67.9243 27.8203 68.1757 28.5518 68.5872 29.1919C68.9987 29.8167 69.5397 30.312 70.2103 30.6778C70.8808 31.0283 71.6428 31.2035 72.4963 31.2035C73.0449 31.2035 73.5936 31.1121 74.1422 30.9292C74.7061 30.7311 75.1557 30.4873 75.4909 30.1977C75.6586 30.0605 75.8491 29.992 76.0624 29.992C76.2758 29.9767 76.4587 30.0301 76.6111 30.152C76.8092 30.3349 76.9083 30.533 76.9083 30.7463C76.9235 30.9597 76.8397 31.1426 76.6568 31.295C76.1539 31.7217 75.5138 32.0798 74.7366 32.3694C73.9593 32.6437 73.2126 32.7809 72.4963 32.7809ZM72.1534 21.6252C70.9799 21.6252 70.0122 21.991 69.2502 22.7225C68.4882 23.4388 68.031 24.376 67.8786 25.5343H76.2453C76.1234 24.376 75.6967 23.4388 74.9652 22.7225C74.2489 21.991 73.3116 21.6252 72.1534 21.6252Z" fill="white"/>
<path d="M81.0747 32.6666C80.8004 32.6666 80.5794 32.5904 80.4117 32.438C80.2593 32.2703 80.1831 32.057 80.1831 31.7979V21.0537C80.1831 20.7794 80.2593 20.566 80.4117 20.4136C80.5794 20.246 80.8004 20.1621 81.0747 20.1621C81.3338 20.1621 81.5395 20.246 81.6919 20.4136C81.8595 20.566 81.9434 20.7794 81.9434 21.0537V21.8309C82.431 21.2671 83.033 20.8251 83.7493 20.5051C84.4808 20.185 85.2657 20.025 86.1039 20.025C87.1859 20.025 88.1537 20.2536 89.0071 20.7108C89.8605 21.1528 90.5311 21.8081 91.0188 22.6768C91.5217 23.5454 91.7732 24.6046 91.7732 25.8543V31.7979C91.7732 32.0417 91.6893 32.2475 91.5217 32.4151C91.3541 32.5828 91.1483 32.6666 90.9045 32.6666C90.6454 32.6666 90.432 32.5828 90.2644 32.4151C90.0968 32.2475 90.0129 32.0417 90.0129 31.7979V25.8543C90.0129 24.437 89.6167 23.393 88.8242 22.7225C88.047 22.0367 87.0792 21.6938 85.921 21.6938C85.1742 21.6938 84.4961 21.8386 83.8865 22.1281C83.2921 22.4177 82.8197 22.8139 82.4691 23.3168C82.1186 23.8198 81.9434 24.3913 81.9434 25.0313V31.7979C81.9434 32.057 81.8595 32.2703 81.6919 32.438C81.5395 32.5904 81.3338 32.6666 81.0747 32.6666Z" fill="white"/>
<path d="M100.477 32.7809C99.2733 32.7809 98.2065 32.5142 97.2769 31.9808C96.3472 31.4321 95.6157 30.6778 95.0823 29.7176C94.5642 28.7575 94.3051 27.6602 94.3051 26.4258C94.3051 25.1761 94.5794 24.0712 95.128 23.1111C95.6767 22.151 96.4311 21.4042 97.3912 20.8708C98.3513 20.3222 99.441 20.0478 100.66 20.0478C101.895 20.0478 102.984 20.3222 103.929 20.8708C104.889 21.4042 105.636 22.151 106.169 23.1111C106.718 24.0712 107 25.1761 107.015 26.4258V31.0892C107.015 32.3237 106.741 33.4286 106.192 34.4039C105.644 35.3945 104.897 36.1718 103.952 36.7357C103.007 37.3148 101.925 37.6043 100.706 37.6043C99.5019 37.6043 98.4427 37.3757 97.5283 36.9185C96.6139 36.4766 95.8596 35.867 95.2652 35.0897C95.0976 34.9069 95.0214 34.7087 95.0366 34.4954C95.0671 34.282 95.1814 34.1068 95.3795 33.9696C95.5776 33.8324 95.7986 33.7867 96.0424 33.8324C96.2863 33.8782 96.4768 33.9925 96.6139 34.1753C97.0559 34.724 97.6198 35.1659 98.3056 35.5012C99.0066 35.8365 99.8143 36.0041 100.729 36.0041C101.582 36.0041 102.352 35.7984 103.038 35.3869C103.723 34.9754 104.264 34.3963 104.661 33.6496C105.072 32.9028 105.278 32.0265 105.278 31.0207V29.9691C104.821 30.8378 104.173 31.5236 103.335 32.0265C102.512 32.5294 101.559 32.7809 100.477 32.7809ZM100.66 31.1807C101.559 31.1807 102.352 30.9826 103.038 30.5863C103.739 30.1748 104.287 29.611 104.684 28.8947C105.08 28.1784 105.278 27.3554 105.278 26.4258C105.278 25.4962 105.08 24.6732 104.684 23.9569C104.287 23.2254 103.739 22.6615 103.038 22.2653C102.352 21.8538 101.559 21.6481 100.66 21.6481C99.761 21.6481 98.9609 21.8538 98.2599 22.2653C97.5588 22.6615 97.0102 23.2254 96.6139 23.9569C96.2177 24.6732 96.0196 25.4962 96.0196 26.4258C96.0196 27.3554 96.2177 28.1784 96.6139 28.8947C97.0102 29.611 97.5588 30.1748 98.2599 30.5863C98.9609 30.9826 99.761 31.1807 100.66 31.1807Z" fill="white"/>
<path d="M111.01 32.6666C110.736 32.6666 110.515 32.5904 110.347 32.438C110.195 32.2703 110.119 32.0494 110.119 31.775V21.0537C110.119 20.7794 110.195 20.566 110.347 20.4136C110.515 20.246 110.736 20.1621 111.01 20.1621C111.269 20.1621 111.475 20.246 111.627 20.4136C111.795 20.566 111.879 20.7794 111.879 21.0537V31.775C111.879 32.0494 111.795 32.2703 111.627 32.438C111.475 32.5904 111.269 32.6666 111.01 32.6666ZM110.987 17.7847C110.652 17.7847 110.363 17.6628 110.119 17.4189C109.875 17.1751 109.753 16.8779 109.753 16.5274C109.753 16.1464 109.875 15.8492 110.119 15.6359C110.378 15.4073 110.675 15.293 111.01 15.293C111.33 15.293 111.612 15.4073 111.856 15.6359C112.115 15.8492 112.245 16.1464 112.245 16.5274C112.245 16.8779 112.123 17.1751 111.879 17.4189C111.635 17.6628 111.338 17.7847 110.987 17.7847Z" fill="white"/>
<path d="M116.567 32.6666C116.292 32.6666 116.071 32.5904 115.904 32.438C115.751 32.2703 115.675 32.057 115.675 31.7979V21.0537C115.675 20.7794 115.751 20.566 115.904 20.4136C116.071 20.246 116.292 20.1621 116.567 20.1621C116.826 20.1621 117.031 20.246 117.184 20.4136C117.351 20.566 117.435 20.7794 117.435 21.0537V21.8309C117.923 21.2671 118.525 20.8251 119.241 20.5051C119.973 20.185 120.758 20.025 121.596 20.025C122.678 20.025 123.646 20.2536 124.499 20.7108C125.352 21.1528 126.023 21.8081 126.511 22.6768C127.014 23.5454 127.265 24.6046 127.265 25.8543V31.7979C127.265 32.0417 127.181 32.2475 127.014 32.4151C126.846 32.5828 126.64 32.6666 126.396 32.6666C126.137 32.6666 125.924 32.5828 125.756 32.4151C125.589 32.2475 125.505 32.0417 125.505 31.7979V25.8543C125.505 24.437 125.109 23.393 124.316 22.7225C123.539 22.0367 122.571 21.6938 121.413 21.6938C120.666 21.6938 119.988 21.8386 119.378 22.1281C118.784 22.4177 118.312 22.8139 117.961 23.3168C117.611 23.8198 117.435 24.3913 117.435 25.0313V31.7979C117.435 32.057 117.351 32.2703 117.184 32.438C117.031 32.5904 116.826 32.6666 116.567 32.6666Z" fill="white"/>
<path d="M136.129 32.7809C134.895 32.7809 133.798 32.5142 132.837 31.9808C131.893 31.4321 131.146 30.6778 130.597 29.7176C130.064 28.7575 129.797 27.6602 129.797 26.4258C129.797 25.1761 130.048 24.0788 130.551 23.134C131.07 22.1738 131.778 21.4195 132.677 20.8708C133.577 20.3222 134.613 20.0478 135.786 20.0478C136.945 20.0478 137.95 20.3145 138.804 20.848C139.673 21.3661 140.343 22.09 140.816 23.0197C141.288 23.9493 141.524 25.0085 141.524 26.1972C141.524 26.441 141.448 26.6392 141.296 26.7916C141.143 26.9287 140.945 26.9973 140.701 26.9973H131.466C131.557 27.8203 131.809 28.5518 132.22 29.1919C132.632 29.8167 133.173 30.312 133.843 30.6778C134.514 31.0283 135.276 31.2035 136.129 31.2035C136.678 31.2035 137.227 31.1121 137.775 30.9292C138.339 30.7311 138.789 30.4873 139.124 30.1977C139.292 30.0605 139.482 29.992 139.695 29.992C139.909 29.9767 140.092 30.0301 140.244 30.152C140.442 30.3349 140.541 30.533 140.541 30.7463C140.556 30.9597 140.473 31.1426 140.29 31.295C139.787 31.7217 139.147 32.0798 138.37 32.3694C137.592 32.6437 136.846 32.7809 136.129 32.7809ZM135.786 21.6252C134.613 21.6252 133.645 21.991 132.883 22.7225C132.121 23.4388 131.664 24.376 131.512 25.5343H139.878C139.756 24.376 139.33 23.4388 138.598 22.7225C137.882 21.991 136.945 21.6252 135.786 21.6252Z" fill="white"/>
</svg>
