<svg width="48" height="48" viewBox="0 0 48 48" fill="none" xmlns="http://www.w3.org/2000/svg">
<path d="M0 6C0 2.68629 2.68629 0 6 0H42C45.3137 0 48 2.68629 48 6V42C48 45.3137 45.3137 48 42 48H6C2.68629 48 0 45.3137 0 42V6Z" fill="#9D64ED"/>
<path fill-rule="evenodd" clip-rule="evenodd" d="M41.5139 13.0012C42.0764 12.9665 42.3973 13.698 42.0236 14.1629L38.6968 18.3017C38.3072 18.7863 37.5812 18.4765 37.5888 17.8288L37.6086 16.1496C37.6112 15.9296 37.5197 15.721 37.3617 15.5867L36.1556 14.5617C35.6904 14.1664 35.9207 13.3462 36.5071 13.31L41.5139 13.0012ZM15.0432 23.8698C15.0432 27.8345 11.8023 31.0473 7.80863 31.0473C6.80792 31.0473 6 30.2406 6 29.2517C6 28.2628 6.80792 27.4608 7.80863 27.4608C9.80547 27.4608 11.4259 25.8521 11.4259 23.8698V18.4878C11.4259 17.4944 12.2338 16.6923 13.2345 16.6923C14.2352 16.6923 15.0432 17.4944 15.0432 18.4878V23.8698ZM34.5433 23.8698C34.5433 25.8521 36.1638 27.4608 38.1606 27.4608C39.1613 27.4608 39.9692 28.2583 39.9692 29.2517C39.9692 30.2452 39.1613 31.0473 38.1606 31.0473C34.1669 31.0473 30.9261 27.8345 30.9261 23.8698V18.4878C30.9261 17.4944 31.734 16.6923 32.7347 16.6923C33.7354 16.6923 34.5433 17.4989 34.5433 18.4878V20.0965H35.9801C36.9809 20.0965 37.7934 20.9031 37.7934 21.8965C37.7934 22.89 36.9809 23.6966 35.9801 23.6966H34.5433V23.8698ZM29.8887 21.3543C29.8933 21.3497 29.8979 21.3497 29.8979 21.3497C29.3286 19.8641 28.2637 18.5608 26.7764 17.704C23.3244 15.7171 18.9175 16.8929 16.9299 20.3289C14.9376 23.7604 16.122 28.1489 19.5694 30.1313C22.1079 31.5896 25.1651 31.3344 27.3961 29.7303L27.3823 29.712C27.8964 29.3976 28.2361 28.8325 28.2361 28.19C28.2361 27.2011 27.4282 26.399 26.4321 26.399C25.9501 26.399 25.5094 26.5859 25.1881 26.8957C24.1047 27.6203 22.6633 27.7343 21.4469 27.0689L28.7319 23.7103C29.1542 23.5827 29.5306 23.3002 29.7647 22.89C30.0493 22.4024 30.0769 21.8419 29.8887 21.3543ZM24.9723 20.8074C25.1881 20.9305 25.3809 21.0717 25.5599 21.2267L19.5648 23.9837C19.551 23.3503 19.7071 22.7077 20.0468 22.1199C21.0429 20.4064 23.2463 19.8185 24.9723 20.8074Z" fill="white"/>
</svg>
