<?xml version="1.0" encoding="iso-8859-1"?>
<!-- Generator: Adobe Illustrator 21.0.0, SVG Export Plug-In . SVG Version: 6.00 Build 0)  -->
<svg version="1.1" id="Capa_1" xmlns="http://www.w3.org/2000/svg" xmlns:xlink="http://www.w3.org/1999/xlink" x="0px" y="0px"
	 viewBox="0 0 512 512" style="enable-background:new 0 0 512 512;" xml:space="preserve">
<g>
	<g>
		<path style="fill:#5E5F62;" d="M220.69,150.069h-61.793v-44.138c0-4.875-3.952-8.828-8.828-8.828s-8.828,3.952-8.828,8.828v44.138
			c0,9.751,7.904,17.655,17.655,17.655h61.793v35.31c0,4.875,3.952,8.828,8.828,8.828s8.828-3.952,8.828-8.828v-35.31
			C238.345,157.973,230.44,150.069,220.69,150.069z"/>
		<path style="fill:#5E5F62;" d="M361.931,353.103h-61.793v-44.138c0-4.875-3.952-8.828-8.828-8.828s-8.828,3.952-8.828,8.828
			v44.138c0,9.751,7.905,17.655,17.655,17.655h61.793v35.31c0,4.875,3.952,8.828,8.828,8.828s8.828-3.952,8.828-8.828v-35.31
			C379.586,361.008,371.682,353.103,361.931,353.103z"/>
	</g>
	<path style="fill:#26B99A;" d="M300.138,17.655v70.621c-0.029,9.739-7.917,17.626-17.655,17.655H52.966V0h229.517
		C292.221,0.029,300.109,7.917,300.138,17.655z"/>
	<path style="fill:#F0C419;" d="M406.069,220.69v70.621c-0.029,9.739-7.917,17.626-17.655,17.655H150.069V203.034h238.345
		C398.152,203.064,406.04,210.951,406.069,220.69z"/>
	<path style="fill:#F29C1F;" d="M176.552,203.034v105.931h-52.966c-9.739-0.029-17.626-7.917-17.655-17.655V220.69
		c0.029-9.739,7.917-17.626,17.655-17.655H176.552z"/>
	<path style="fill:#FF5364;" d="M512,423.724v70.621c-0.029,9.739-7.917,17.626-17.655,17.655H264.828V406.069h229.517
		C504.083,406.098,511.971,413.986,512,423.724z"/>
	<path style="fill:#DF4D60;" d="M282.483,406.069V512h-52.966c-9.739-0.029-17.626-7.917-17.655-17.655v-70.621
		c0.029-9.739,7.917-17.626,17.655-17.655H282.483z"/>
	<g>
		<path style="fill:#14A085;" d="M70.621,0v105.931H17.655C7.917,105.902,0.029,98.014,0,88.276V17.655
			C0.029,7.917,7.917,0.029,17.655,0H70.621z"/>
		<path style="fill:#14A085;" d="M256,26.483H114.759c-4.875,0-8.828,3.952-8.828,8.828s3.952,8.828,8.828,8.828H256
			c4.875,0,8.828-3.952,8.828-8.828S260.875,26.483,256,26.483z"/>
		<path style="fill:#14A085;" d="M185.379,61.793h-70.621c-4.875,0-8.828,3.952-8.828,8.828s3.952,8.828,8.828,8.828h70.621
			c4.875,0,8.828-3.952,8.828-8.828S190.255,61.793,185.379,61.793z"/>
	</g>
	<g>
		<path style="fill:#E57E25;" d="M361.931,229.517H220.69c-4.875,0-8.828,3.952-8.828,8.828c0,4.875,3.952,8.828,8.828,8.828
			h141.241c4.875,0,8.828-3.952,8.828-8.828C370.759,233.469,366.806,229.517,361.931,229.517z"/>
		<path style="fill:#E57E25;" d="M291.31,264.828H220.69c-4.875,0-8.828,3.952-8.828,8.828s3.952,8.828,8.828,8.828h70.621
			c4.875,0,8.828-3.952,8.828-8.828S296.186,264.828,291.31,264.828z"/>
	</g>
	<g>
		<path style="fill:#802D40;" d="M467.862,432.552H326.621c-4.875,0-8.828,3.952-8.828,8.828s3.952,8.828,8.828,8.828h141.241
			c4.875,0,8.828-3.952,8.828-8.828S472.737,432.552,467.862,432.552z"/>
		<path style="fill:#802D40;" d="M397.241,467.862h-70.621c-4.875,0-8.828,3.952-8.828,8.828s3.952,8.828,8.828,8.828h70.621
			c4.875,0,8.828-3.952,8.828-8.828S402.117,467.862,397.241,467.862z"/>
	</g>
</g>
<g>
</g>
<g>
</g>
<g>
</g>
<g>
</g>
<g>
</g>
<g>
</g>
<g>
</g>
<g>
</g>
<g>
</g>
<g>
</g>
<g>
</g>
<g>
</g>
<g>
</g>
<g>
</g>
<g>
</g>
</svg>
