<svg enable-background="new 0 0 256 256" height="512" viewBox="0 0 256 256" width="512" xmlns="http://www.w3.org/2000/svg"><g id="Layer_12"><g><g><g><path d="m187.471 12.125h-100.367l-50.402 50.401v159.008c0 6.787 5.553 12.341 12.341 12.341h138.428c6.787 0 12.341-5.553 12.341-12.341v-197.068c0-6.788-5.554-12.341-12.341-12.341z" fill="#edf4fc"/></g></g><g><g><path d="m141.446 83.31h10v23h-10z" fill="#fcdd86" transform="matrix(.707 -.707 .707 .707 -24.148 131.323)"/></g></g><g><g><path d="m165.305 79.728-3.776-3.776c-3.448-3.448-9.039-3.448-12.488 0l-7.191 7.191 16.263 16.263 7.191-7.191c3.449-3.448 3.449-9.039.001-12.487z" fill="#fc657e"/></g></g><g><g><path d="m72.768 152.226c-1.741 1.741-2.835 4.023-3.102 6.47l-1.018 9.316c-.29 2.65 1.948 4.887 4.598 4.598l9.315-1.018c2.447-.267 4.729-1.362 6.47-3.102l62.012-62.012-16.263-16.263z" fill="#f5c84c"/></g></g><g><g><path d="m36.702 62.526h38.061c6.787 0 12.341-5.553 12.341-12.341v-38.06z" fill="#70d6f9"/></g></g><g><g><path d="m53.194 19.551c-4.149.773-7.419 3.976-8.208 8.041-.04.204-.325.204-.364 0-.789-4.065-4.059-7.268-8.208-8.041-.208-.039-.208-.318 0-.357 4.149-.773 7.419-3.976 8.208-8.041.04-.204.325-.204.364 0 .789 4.065 4.059 7.268 8.208 8.041.208.039.208.318 0 .357z" fill="#f5c84c"/></g></g><g><g><path d="m221.688 141.998c-2.91.542-5.204 2.789-5.757 5.64-.028.143-.228.143-.255 0-.553-2.851-2.847-5.098-5.757-5.64-.146-.027-.146-.223 0-.25 2.91-.542 5.204-2.789 5.757-5.64.028-.143.228-.143.255 0 .553 2.851 2.847 5.098 5.757 5.64.146.027.146.222 0 .25z" fill="#f5c84c"/></g></g><g><g><circle cx="76.257" cy="3.377" fill="#fc657e" r="3.377"/></g></g><g><g><circle cx="213.257" cy="166.377" fill="#87d147" r="3.377"/></g></g><g><g><path d="m187.471 236.375h-138.428c-8.183 0-14.841-6.658-14.841-14.841v-159.008c0-.663.263-1.299.732-1.768l50.401-50.401c.469-.469 1.104-.732 1.768-.732h100.367c8.183 0 14.841 6.658 14.841 14.841v197.068c.001 8.183-6.657 14.841-14.84 14.841zm-148.269-172.813v157.972c0 5.426 4.415 9.841 9.841 9.841h138.428c5.426 0 9.841-4.415 9.841-9.841v-197.068c0-5.426-4.415-9.841-9.841-9.841h-99.332z"/></g></g><g><g><path d="m74.763 65.026h-36.97c-1.381 0-2.5-1.119-2.5-2.5s1.119-2.5 2.5-2.5h36.97c5.426 0 9.841-4.415 9.841-9.841v-37.28c0-1.381 1.119-2.5 2.5-2.5s2.5 1.119 2.5 2.5v37.28c0 8.184-6.658 14.841-14.841 14.841z"/></g></g><g><g><path d="m122.73 246.758h-1.824v-1.824c0-1.366-1.107-2.473-2.473-2.473s-2.473 1.107-2.473 2.473v1.824h-1.824c-1.366 0-2.473 1.107-2.473 2.473s1.107 2.473 2.473 2.473h1.824v1.824c0 1.366 1.107 2.473 2.473 2.473s2.473-1.107 2.473-2.473v-1.824h1.824c1.366 0 2.473-1.107 2.473-2.473s-1.108-2.473-2.473-2.473z" fill="#70d6f9"/></g></g><g><g><circle cx="149.641" cy="247.627" fill="#fc657e" r="3.377"/></g></g><g><g><path d="m157.507 101.3c-.64 0-1.28-.244-1.768-.732l-15.247-15.247c-.977-.976-.977-2.559 0-3.535.976-.977 2.56-.977 3.535 0l15.247 15.247c.977.976.977 2.559 0 3.535-.487.488-1.128.732-1.767.732z"/></g></g><g><g><path d="m150.594 108.528c-.64 0-1.28-.244-1.768-.732l-15.264-15.264c-.977-.976-.977-2.559 0-3.535.976-.977 2.56-.977 3.535 0l15.264 15.264c.977.976.977 2.559 0 3.535-.487.488-1.128.732-1.767.732z"/></g></g><g><g><path d="m72.782 175.134c-1.76 0-3.443-.692-4.706-1.954-1.437-1.437-2.135-3.42-1.914-5.44l1.018-9.315c.328-3.002 1.684-5.831 3.82-7.966l76.274-76.274c4.417-4.418 11.605-4.417 16.023 0l3.776 3.776c4.417 4.418 4.417 11.606 0 16.023l-76.274 76.274c-2.135 2.136-4.964 3.492-7.967 3.82l-9.315 1.018c-.246.025-.491.038-.735.038zm82.503-99.265c-1.621 0-3.242.617-4.476 1.851l-76.274 76.274c-1.333 1.333-2.18 3.1-2.384 4.974l-1.018 9.316c-.076.692.268 1.15.479 1.362.211.211.668.554 1.362.479l9.315-1.018c1.875-.205 3.641-1.051 4.974-2.384l76.274-76.274c2.468-2.468 2.468-6.484 0-8.953l-3.775-3.776c-1.235-1.235-2.856-1.851-4.477-1.851z"/></g></g></g></g></svg>