<svg id="Capa_1" enable-background="new 0 0 512 512" height="512" viewBox="0 0 512 512" width="512" xmlns="http://www.w3.org/2000/svg"><g><g><path d="m345.738 7.5c-26.293 0-51.714 9.487-71.579 26.714s-32.854 41.048-36.575 67.077l-16.019 112.037h-56.67c-16.775 0-30.374 13.599-30.374 30.374s13.599 30.374 30.374 30.374h47.984l-18.307 128.034c-3.394 23.739-24.038 41.641-48.018 41.641-26.747 0-48.507-21.76-48.507-48.507 0-16.775-13.599-30.374-30.374-30.374s-30.374 13.599-30.374 30.374c0 60.243 49.012 109.255 109.255 109.255 26.294 0 51.714-9.487 71.579-26.714 19.865-17.226 32.854-41.048 36.576-67.077l19.536-136.633h69.358c16.775 0 30.374-13.599 30.374-30.374s-13.599-30.374-30.374-30.374h-60.673l14.79-103.439c3.394-23.74 24.037-41.641 48.018-41.641 26.747 0 48.507 21.76 48.507 48.507 0 16.775 13.599 30.374 30.374 30.374s30.374-13.599 30.374-30.374c.001-60.242-49.011-109.254-109.255-109.254z" fill="#9dc6fb"/><g fill="#80b4fb"><path d="m162.895 443.752c23.981 0 44.625-17.902 48.019-41.641l18.307-128.035h-16.341l-18.307 128.035c-3.002 21-19.506 37.422-39.875 40.934 2.666.456 5.402.707 8.197.707z"/><path d="m253.925 101.291c3.721-26.029 16.711-49.851 36.575-67.077 17.847-15.477 40.183-24.681 63.603-26.396-2.761-.21-5.551-.317-8.365-.317-26.293 0-51.714 9.487-71.579 26.714s-32.854 41.049-36.575 67.077l-16.019 112.037h16.341z"/><path d="m410.587 116.755c0-26.747-21.76-48.507-48.507-48.507-2.767 0-5.487.249-8.144.707 22.855 3.908 40.309 23.848 40.309 47.8 0 16.775 13.599 30.374 30.374 30.374 2.832 0 5.57-.396 8.171-1.121-12.804-3.57-22.203-15.31-22.203-29.253z"/><path d="m53.64 395.245c0-13.943 9.399-25.684 22.203-29.253-2.601-.725-5.339-1.121-8.171-1.121-16.775 0-30.374 13.599-30.374 30.374 0 60.243 49.012 109.255 109.255 109.255 2.671 0 5.329-.124 7.976-.317-56.349-4.287-100.889-51.509-100.889-108.938z"/><path d="m164.895 274.076h16.341c-16.775 0-30.374-13.599-30.374-30.374s13.599-30.374 30.374-30.374h-16.341c-16.775 0-30.374 13.599-30.374 30.374s13.599 30.374 30.374 30.374z"/></g><g><path d="m437.745 424.378 28.016-28.016c11.92-11.92 11.92-31.246 0-43.166-11.919-11.921-31.246-11.92-43.165 0l-28.017 28.016-28.017-28.016c-11.919-11.92-31.246-11.919-43.165 0-11.92 11.919-11.92 31.246 0 43.166l28.016 28.016-28.016 28.016c-11.92 11.92-11.92 31.246 0 43.166 5.961 5.96 13.77 8.94 21.583 8.94 7.811 0 15.624-2.981 21.583-8.94l28.017-28.016 28.017 28.016c5.96 5.96 13.771 8.94 21.583 8.94s15.623-2.98 21.583-8.94c11.92-11.92 11.92-31.246 0-43.166z" fill="#df75a5"/><g><path d="m348.727 495.56c-11.92-11.92-11.92-31.246 0-43.166l28.016-28.016-28.016-28.016c-11.92-11.92-11.92-31.246 0-43.165 2.659-2.659 5.687-4.72 8.918-6.193-11.256-5.13-24.987-3.068-34.248 6.193-11.92 11.919-11.92 31.246 0 43.165l28.016 28.016-28.016 28.016c-11.92 11.92-11.92 31.246 0 43.166 5.961 5.96 13.77 8.94 21.583 8.94 4.326 0 8.652-.918 12.664-2.747-3.23-1.473-6.258-3.534-8.917-6.193z" fill="#dd5790"/></g></g></g><g><path d="m146.55 512c-64.376 0-116.75-52.378-116.75-116.76 0-20.882 16.988-37.87 37.87-37.87 20.887 0 37.88 16.988 37.88 37.87 0 22.613 18.393 41.01 41 41.01 20.278 0 37.73-15.133 40.595-35.2l17.086-119.47h-39.331c-20.887 0-37.88-16.993-37.88-37.88 0-20.882 16.993-37.87 37.88-37.87h50.156l15.1-105.602c1.637-11.473 4.964-22.6 9.887-33.07 1.762-3.749 6.23-5.356 9.979-3.596 3.749 1.763 5.358 6.23 3.596 9.979-4.288 9.119-7.186 18.812-8.612 28.808l-16.021 112.042c-.528 3.694-3.692 6.438-7.424 6.438h-56.661c-12.616 0-22.88 10.259-22.88 22.87 0 12.616 10.264 22.88 22.88 22.88h47.98c2.174 0 4.242.944 5.667 2.586 1.424 1.643 2.066 3.823 1.758 5.976l-18.31 128.03c-3.913 27.408-27.75 48.078-55.444 48.078-30.878 0-56-25.126-56-56.01 0-12.611-10.264-22.87-22.88-22.87-12.611 0-22.87 10.259-22.87 22.87-.001 56.112 45.644 101.761 101.749 101.761 24.489 0 48.166-8.834 66.667-24.876 18.505-16.047 30.604-38.234 34.068-62.475l19.531-136.63c.528-3.695 3.692-6.439 7.424-6.439h69.36c12.616 0 22.88-10.264 22.88-22.88 0-12.611-10.264-22.87-22.88-22.87h-60.67c-2.174 0-4.242-.944-5.666-2.586-1.425-1.643-2.066-3.823-1.758-5.975l14.79-103.44c3.913-27.409 27.75-48.079 55.444-48.079 30.884 0 56.01 25.122 56.01 56 0 12.616 10.259 22.88 22.87 22.88s22.87-10.264 22.87-22.88c0-56.105-45.645-101.75-101.75-101.75-24.489 0-48.166 8.834-66.667 24.876-3.669 3.185-7.111 6.63-10.229 10.237-2.708 3.134-7.443 3.479-10.579.771-3.134-2.708-3.479-7.445-.771-10.579 3.584-4.148 7.537-8.104 11.749-11.76 21.233-18.408 48.398-28.545 76.497-28.545 64.376 0 116.75 52.374 116.75 116.75 0 20.887-16.988 37.88-37.87 37.88s-37.87-16.993-37.87-37.88c0-22.607-18.397-41-41.01-41-20.278 0-37.73 15.133-40.595 35.2l-13.566 94.88h52.021c20.887 0 37.88 16.988 37.88 37.87 0 20.887-16.993 37.88-37.88 37.88h-62.855l-18.61 130.191c-3.975 27.814-17.857 53.272-39.091 71.685-21.23 18.407-48.395 28.544-76.494 28.544z"/><g><path d="m444.18 512c-3.609 0-7.188-.51-10.641-1.516-3.197-.858-5.554-3.776-5.554-7.244 0-4.142 3.353-7.5 7.495-7.5h.01c.723 0 1.441.104 2.134.31 2.123.63 4.329.95 6.556.95 6.147 0 11.928-2.395 16.276-6.743 4.349-4.349 6.744-10.131 6.744-16.282s-2.395-11.933-6.744-16.282l-28.01-28.01c-2.929-2.929-2.929-7.676-.001-10.605l28.01-28.02c4.35-4.35 6.745-10.13 6.745-16.277 0-6.148-2.395-11.928-6.744-16.277s-10.129-6.744-16.277-6.744c-6.147 0-11.928 2.395-16.276 6.744l-28.021 28.011c-2.929 2.928-7.676 2.928-10.604 0l-28.02-28.01c-4.35-4.35-10.13-6.745-16.278-6.745s-11.928 2.395-16.277 6.744c-8.975 8.975-8.975 23.578 0 32.553l28.011 28.021c2.928 2.929 2.928 7.677-.001 10.605l-28.01 28.01c-8.978 8.978-8.978 23.585 0 32.563 4.349 4.348 10.129 6.743 16.277 6.743s11.928-2.395 16.277-6.743l28.02-28.02c1.406-1.407 3.314-2.197 5.303-2.197h.001c1.99 0 3.897.791 5.304 2.198l17.3 17.31c1.424 1.365 2.311 3.285 2.311 5.412 0 4.142-3.353 7.5-7.495 7.5-1.99 0-3.908-.791-5.314-2.198l-12.107-12.114-22.715 22.715c-7.183 7.183-16.731 11.138-26.885 11.138s-19.702-3.955-26.883-11.137c-14.826-14.826-14.826-38.95 0-53.776l22.708-22.708-22.709-22.717c-14.822-14.822-14.822-38.942.001-53.765 7.182-7.182 16.729-11.137 26.883-11.137s19.702 3.956 26.883 11.137l22.717 22.708 22.718-22.709c7.18-7.181 16.728-11.136 26.882-11.136 10.155 0 19.702 3.956 26.883 11.137s11.137 16.728 11.137 26.883c0 10.154-3.956 19.701-11.137 26.883l-22.708 22.716 22.708 22.708c7.182 7.181 11.137 16.73 11.137 26.888s-3.956 19.707-11.137 26.888-16.729 11.137-26.883 11.137z"/></g></g></g></svg>