<?xml version="1.0" encoding="iso-8859-1"?>
<!-- Generator: Adobe Illustrator 19.0.0, SVG Export Plug-In . SVG Version: 6.00 Build 0)  -->
<svg version="1.1" id="Layer_1" xmlns="http://www.w3.org/2000/svg" xmlns:xlink="http://www.w3.org/1999/xlink" x="0px" y="0px"
	 viewBox="0 0 512 512" style="enable-background:new 0 0 512 512;" xml:space="preserve">
<rect x="251.519" y="25.183" transform="matrix(-0.7071 -0.7071 0.7071 -0.7071 446.4528 305.0724)" style="fill:#30A987;" width="69.78" height="69.78"/>
<rect x="195.16" y="163.093" style="fill:#F4A026;" width="182.503" height="64.413"/>
<ellipse style="fill:#EFEFEF;" cx="286.423" cy="332.177" rx="67.097" ry="50.994"/>
<rect x="232.735" y="436.848" style="fill:#E46A53;" width="107.355" height="64.413"/>
<rect x="66.34" y="163.093" style="fill:#61ACD2;" width="64.413" height="64.413"/>
<path style="fill:#231F20;" d="M445.66,49.341H340.206L294.008,3.143c-4.192-4.191-10.99-4.191-15.183,0l-49.341,49.342
	c-4.192,4.192-4.192,10.99,0,15.183l46.198,46.198v38.494h-80.516c-5.929,0-10.735,4.806-10.735,10.735v21.471h-42.942v-21.471
	c0-5.929-4.806-10.735-10.735-10.735H66.34c-5.929,0-10.735,4.806-10.735,10.735v64.413c0,5.929,4.806,10.735,10.735,10.735h20.755
	v93.798c0,5.929,4.806,10.735,10.735,10.735h95.437l-10.346,10.346c-4.192,4.192-4.193,10.99,0,15.182
	c2.097,2.097,4.844,3.144,7.591,3.144c2.747,0,5.495-1.049,7.591-3.144l15.061-15.061c3.994,8.83,10.521,16.859,19.311,23.54
	c11.932,9.068,26.987,14.783,43.205,16.539v32.792h-42.942c-5.929,0-10.735,4.806-10.735,10.735v64.413
	c0,5.929,4.806,10.735,10.735,10.735h107.355c5.929,0,10.736-4.806,10.736-10.735v-64.413c0-5.929-4.806-10.735-10.736-10.735
	h-42.942v-32.792c16.218-1.756,31.272-7.471,43.205-16.539c8.801-6.689,15.332-14.73,19.325-23.572l15.092,15.092
	c2.097,2.097,4.844,3.144,7.591,3.144c2.747,0,5.495-1.049,7.591-3.144c4.192-4.192,4.192-10.99,0-15.182l-10.346-10.346h66.05
	c5.929,0,10.736-4.806,10.736-10.735V60.077C456.396,54.148,451.589,49.341,445.66,49.341z M329.359,490.529h-85.884v-42.942h85.884
	V490.529z M286.417,25.918l34.16,34.16l-34.16,34.16l-34.16-34.16L286.417,25.918z M205.901,173.832h161.032v42.942H205.901
	L205.901,173.832L205.901,173.832z M77.075,173.832h42.942v42.942H77.075V173.832z M108.566,238.245h22.187
	c5.929,0,10.735-4.806,10.735-10.735v-21.471h42.942v21.471c0,5.929,4.806,10.735,10.735,10.735h80.516v32.792
	c-16.218,1.756-31.272,7.471-43.205,16.539c-8.727,6.632-15.227,14.593-19.228,23.346l-15.143-15.143
	c-4.192-4.192-10.99-4.192-15.183,0c-4.192,4.192-4.192,10.99,0,15.183l10.346,10.346h-84.702L108.566,238.245L108.566,238.245z
	 M286.417,372.439c-31.078,0-56.361-18.059-56.361-40.258c0-22.199,25.283-40.258,56.361-40.258s56.361,18.059,56.361,40.258
	C342.779,354.379,317.496,372.439,286.417,372.439z M434.925,321.308H379.61l10.347-10.346c4.192-4.192,4.192-10.99,0-15.183
	c-4.192-4.191-10.99-4.191-15.183,0l-15.175,15.175c-4-8.766-10.505-16.738-19.242-23.378
	c-11.932-9.068-26.987-14.783-43.205-16.539v-32.792h80.516c5.929,0,10.735-4.806,10.735-10.735v-64.413
	c0-5.929-4.806-10.735-10.735-10.735h-80.516v-38.494l43.054-43.054h94.718v250.494H434.925z"/>
<g>
</g>
<g>
</g>
<g>
</g>
<g>
</g>
<g>
</g>
<g>
</g>
<g>
</g>
<g>
</g>
<g>
</g>
<g>
</g>
<g>
</g>
<g>
</g>
<g>
</g>
<g>
</g>
<g>
</g>
</svg>
