<svg id="Icons" height="512" viewBox="0 0 60 60" width="512" xmlns="http://www.w3.org/2000/svg"><path d="m42 15h-1.771a1.215 1.215 0 0 0 -.983 1.929l4.754 6.559a1.222 1.222 0 0 0 1.99 0l4.77-6.575a1.2 1.2 0 0 0 -1-1.913h-1.76c0-6-5-9-10-9a23.794 23.794 0 0 0 -3.637.265.433.433 0 0 0 -.026.849c2.957.686 7.663 2.886 7.663 7.886z" fill="#edcb3a"/><path d="m18 45h1.771a1.215 1.215 0 0 0 .983-1.929l-4.754-6.559a1.222 1.222 0 0 0 -1.99 0l-4.77 6.575a1.2 1.2 0 0 0 .991 1.913h1.769c0 6 5 9 10 9a23.794 23.794 0 0 0 3.637-.265.433.433 0 0 0 .026-.849c-2.957-.686-7.663-2.886-7.663-7.886z" fill="#edcb3a"/><path d="m29 5v18a4 4 0 0 1 -4 4h-8.71l-6.26 4.69a1.517 1.517 0 0 1 -2.41-.96l-.62-3.73h-2a4 4 0 0 1 -4-4v-18a4 4 0 0 1 4-4h20a4 4 0 0 1 4 4z" fill="#55d187"/><path d="m31 32v18a4 4 0 0 0 4 4h8.71l6.26 4.69a1.517 1.517 0 0 0 2.41-.96l.62-3.73h2a4 4 0 0 0 4-4v-18a4 4 0 0 0 -4-4h-20a4 4 0 0 0 -4 4z" fill="#36a5f7"/><g fill="#262626"><path d="m38.256 15.208a2.207 2.207 0 0 0 .18 2.308l4.753 6.551a2.222 2.222 0 0 0 3.615.007l4.764-6.568a2.176 2.176 0 0 0 .2-2.285 2.221 2.221 0 0 0 -1.999-1.221h-.813c-.532-5.913-5.774-9-10.956-9a24.827 24.827 0 0 0 -3.8.278 1.432 1.432 0 0 0 -.094 2.81c1.5.348 6.16 1.758 6.813 5.912h-.7a2.207 2.207 0 0 0 -1.963 1.208zm-1.07-8.195c.27-.008.542-.013.814-.013 4.335 0 9 2.5 9 8a1 1 0 0 0 1 1h1.769a.222.222 0 0 1 .209.123.177.177 0 0 1 -.024.2l-4.774 6.584c-.11.155-.247.161-.367-.007l-4.758-6.558a.205.205 0 0 1 -.018-.225.2.2 0 0 1 .192-.117h1.771a1 1 0 0 0 1-1c0-4-2.687-6.6-5.814-7.987z"/><path d="m21.744 44.792a2.207 2.207 0 0 0 -.18-2.308l-4.753-6.551a2.222 2.222 0 0 0 -3.615-.007l-4.764 6.568a2.176 2.176 0 0 0 -.2 2.285 2.221 2.221 0 0 0 1.999 1.221h.813c.532 5.913 5.774 9 10.956 9a24.827 24.827 0 0 0 3.8-.278 1.432 1.432 0 0 0 .094-2.81c-1.5-.348-6.16-1.758-6.813-5.912h.7a2.207 2.207 0 0 0 1.963-1.208zm1.07 8.2c-.27.008-.542.008-.814.008-4.335 0-9-2.5-9-8a1 1 0 0 0 -1-1h-1.769a.222.222 0 0 1 -.209-.123.177.177 0 0 1 .024-.2l4.774-6.581a.214.214 0 0 1 .18-.096.219.219 0 0 1 .186.1l4.758 6.558a.205.205 0 0 1 .018.225.2.2 0 0 1 -.192.117h-1.77a1 1 0 0 0 -1 1c0 4 2.687 6.6 5.814 7.987z"/><path d="m5 28h1.152l.482 2.9a2.5 2.5 0 0 0 1.557 1.923 2.535 2.535 0 0 0 .932.18 2.489 2.489 0 0 0 1.507-.51l5.993-4.493h8.377a5.006 5.006 0 0 0 5-5v-18a5.006 5.006 0 0 0 -5-5h-20a5.006 5.006 0 0 0 -5 5v2a1 1 0 0 0 2 0v-2a3 3 0 0 1 3-3h20a3 3 0 0 1 3 3v18a3 3 0 0 1 -3 3h-8.71a1 1 0 0 0 -.6.2l-6.263 4.7a.5.5 0 0 1 -.5.067.511.511 0 0 1 -.322-.395l-.62-3.73a1 1 0 0 0 -.985-.842h-2a3 3 0 0 1 -3-3v-12a1 1 0 0 0 -2 0v12a5.006 5.006 0 0 0 5 5z"/><path d="m55 27h-20a5.006 5.006 0 0 0 -5 5v18a5.006 5.006 0 0 0 5 5h8.377l5.989 4.487a2.5 2.5 0 0 0 1.512.513 2.53 2.53 0 0 0 .931-.18 2.5 2.5 0 0 0 1.557-1.92l.482-2.9h1.152a5.006 5.006 0 0 0 5-5v-18a5.006 5.006 0 0 0 -5-5zm3 23a3 3 0 0 1 -3 3h-2a1 1 0 0 0 -.986.836l-.62 3.727a.512.512 0 0 1 -.322.4.5.5 0 0 1 -.5-.07l-6.262-4.693a1 1 0 0 0 -.6-.2h-8.71a3 3 0 0 1 -3-3v-18a3 3 0 0 1 3-3h20a3 3 0 0 1 3 3z"/><path d="m19 22a1 1 0 0 0 1-1v-10a5 5 0 0 0 -10 0v10a1 1 0 0 0 2 0v-6h6v6a1 1 0 0 0 1 1zm-7-9v-2a3 3 0 0 1 6 0v2z"/><path d="m51 36h-5v-2a1 1 0 0 0 -2 0v2h-5a1 1 0 0 0 0 2h1.06a11.833 11.833 0 0 0 3.419 7.453 13.2 13.2 0 0 1 -2.832 1.611 1 1 0 0 0 .353 1.936 1.037 1.037 0 0 0 .351-.063 15.284 15.284 0 0 0 3.649-2.124 15.284 15.284 0 0 0 3.648 2.124 1.038 1.038 0 0 0 .352.063 1 1 0 0 0 .352-1.937 13.306 13.306 0 0 1 -2.817-1.623 11.831 11.831 0 0 0 3.405-7.44h1.06a1 1 0 0 0 0-2zm-5.985 8.131a10 10 0 0 1 -2.952-6.131h5.876a9.963 9.963 0 0 1 -2.924 6.131z"/></g></svg>