<svg viewBox="0 0 512 512" xmlns="http://www.w3.org/2000/svg"><g id="Layer_34" data-name="Layer 34"><path d="m444.07 504.74c27.86-5.4 54.78-30.85 60.93-58.62 3.51-16.87 6.95-39.81 7-71.13s-3.49-54.26-7-71.12c-6.15-27.78-33.07-53.23-60.93-58.63-17-3.39-64.3-7.58-95.61-7.24-31.31-.34-78.65 3.85-95.62 7.24-27.85 5.4-54.78 30.85-60.93 58.63-3.5 16.86-6.94 39.8-7 71.12s3.49 54.26 7 71.13c6.15 27.77 33.09 53.22 60.93 58.62 17 3.39 64.31 7.58 95.62 7.24 31.31.34 78.64-3.85 95.61-7.24z" fill="#89afce"/><path d="m373.53 238.48c-8.86-.37-17.44-.56-25.07-.48-31.31-.34-78.65 3.85-95.62 7.24-27.85 5.4-54.78 30.85-60.93 58.63-3.5 16.86-6.94 39.8-7 71.12 0 6.43.17 12.49.44 18.23a278.73 278.73 0 0 0 188.18-154.74z" fill="#99badc"/><path d="m348.57 284.75a19.57 19.57 0 0 0 -18.42 12.95l-48.86 135.52a14.11 14.11 0 0 0 13.27 18.9 14.12 14.12 0 0 0 13.35-9.54l6.55-19.15h68l6.54 19.15a14.12 14.12 0 0 0 13.35 9.54 14.11 14.11 0 0 0 13.27-18.88l-48.62-135.52a19.58 19.58 0 0 0 -18.43-12.97zm-25.74 111.93 24.76-71.28h.48l24.76 71.28z" fill="#fff"/><path d="m320.11 65.89c-6.11-27.78-33.11-53.23-60.93-58.63-16.98-3.39-64.31-7.58-95.63-7.26-31.31-.32-78.65 3.87-95.62 7.26-27.85 5.4-54.78 30.85-60.93 58.63-3.51 16.87-6.95 39.81-7 71.11s3.49 54.26 7 71.13c6.15 27.78 33.08 53.23 60.93 58.63 9.17 1.83 27.18 3.9 46.75 5.35q3.33 5.24 7.22 11.12c10.38 15.73 18.32 26.68 24.34 34.32 10 12.7 24.6 12.7 34.62 0 6-7.63 14-18.59 24.35-34.32q3.89-5.89 7.21-11.11c19.57-1.46 37.59-3.53 46.76-5.36 27.85-5.4 54.78-30.85 60.93-58.63 3.5-16.87 6.94-39.81 7-71.13s-3.5-54.24-7-71.11z" fill="#4193d2"/><path d="m489.7 136.4a14 14 0 0 0 -19.85 0l-17.41 17.41v-42.1a53.14 53.14 0 0 0 -53.08-53.08h-25.27a14 14 0 0 0 0 28h25.24a25.11 25.11 0 0 1 25.08 25.08v41.47l-17.41-17.41a14 14 0 1 0 -19.85 19.85l32.34 32.38a27.2 27.2 0 0 0 38.51 0l31.74-31.74a14 14 0 0 0 0-19.84z" fill="#34344f"/><path d="m137.92 425.36h-25.24a25.11 25.11 0 0 1 -25.08-25.08v-41.47l17.4 17.41a14 14 0 1 0 19.84-19.85l-32.32-32.37a27.2 27.2 0 0 0 -38.47 0l-31.74 31.75a14 14 0 0 0 19.85 19.84l17.41-17.41v42.1a53.14 53.14 0 0 0 53.08 53.08h25.24a14 14 0 0 0 0-28z" fill="#34344f"/><path d="m245.91 89.39h-17.33a242.46 242.46 0 0 1 -48.4 75.55c.8.68 1.6 1.36 2.41 2l18.7 15.38 26.08 21.45a11.42 11.42 0 0 1 1.56 16.11 11.44 11.44 0 0 1 -16.09 1.56l-44.84-36.81q-2.26-1.86-4.48-3.78c-1.48 1.28-3 2.55-4.47 3.78l-44.8 36.85a11.45 11.45 0 0 1 -16.1-1.56 11.44 11.44 0 0 1 1.56-16.11l44.8-36.81c.82-.67 1.62-1.34 2.42-2a240.07 240.07 0 0 1 -30.52-40 11.45 11.45 0 0 1 9.73-17.46 11.45 11.45 0 0 1 9.86 5.46 216.86 216.86 0 0 0 27.6 36.16 218.58 218.58 0 0 0 40.09-59.8h-122.5a11.45 11.45 0 0 1 -11.44-11.36 11.45 11.45 0 0 1 11.44-11.5h70.91v-10.68a11.45 11.45 0 0 1 11.44-11.45 11.45 11.45 0 0 1 11.46 11.45v10.68h70.9a11.45 11.45 0 0 1 11.45 11.5 11.44 11.44 0 0 1 -11.44 11.39z" fill="#fff"/></g></svg>