<svg id="GraphQL_API_logo" data-name="GraphQL API logo" xmlns="http://www.w3.org/2000/svg" viewBox="0 0 102.24 94.09"><defs><style>.cls-1{fill:#fff;}.cls-2{fill:#e10198;}.cls-3{fill:#bc4e59;}</style></defs><path d="M69.23,94.83c2.22-.19,3.92-.31,5.62-.49.58-.06,1.14-.34,1.72-.45,2.56-.5,3.93.87,3.37,3.39-.81,3.73-3.07,6.71-5.33,9.63a2.74,2.74,0,0,1-2.41.42c-3-.93-5.8-2.28-8.78-3.07a11.5,11.5,0,0,0-5.5-.08,42.73,42.73,0,0,0-6.6,2.73c-.27.12-.5.32-.76.46-3.32,1.77-4.37,1.31-4.84-2.35-.36-2.72-.48-5.46-.75-8.19-.14-1.43.48-2,1.87-1.81l5.26.63.39-.52A56.76,56.76,0,0,0,48.37,91c-2.95-2.42-6-4.77-9.07-7a12.93,12.93,0,0,0-4.14-1.92c-2.57-.65-3.65-2.59-2.25-4.83,1.53-2.43.84-4.91.67-7.92A23.32,23.32,0,0,0,29.69,71c-4.55,3-9.11,2.25-13.61.08-2.92-1.41-4.89-3.91-6.73-6.53-2.74-3.93-1-7.87,2.55-10.43,5.22-3.74,11.1-4.36,17.22-4.1a16,16,0,0,1,3.64.78c1.78.52,2.2.29,2.22-1.49,0-1.55,0-3.1,0-4.64-.07-3,1.48-4.2,4.26-3.55a2.19,2.19,0,0,0,1.65-.65c2.94-2.94,5.82-5.94,8.72-8.91,1.71-1.75,3.43-3.48,5.13-5.23a8.51,8.51,0,0,0,.71-1c-3.6-1.38-6.93.21-10.4.06l5.53-1.81,0-.71-7-.61v-.38h7.75l.22-.6L47,17.54c4.29.66,6.56,4.22,10.13,6.07,1.35-1.85,3.49-3.17,3.72-5.94a4.12,4.12,0,0,1,4-3.38c2.4.28,3.59,2.13,4.07,4.18.44,1.89,2,3.53,3.07,5.22a2.85,2.85,0,0,0,1.43-.6c1.78-1.58,3.49-3.23,5.25-4.84a1.61,1.61,0,0,1,1.09-.39l-4,4.23.4.6,5-1.47.09.23-2.15,1.17.1.52,5.47-.66,0,.14-9.61,2.44c-1.4.36-1.72,1.33-.84,2.48l9.87,12.82a2.87,2.87,0,0,0,3,1.39c1.29-.25,2.64-.11,3.09,1.39s.8,3-.37,4.67c-.9,1.29-.84,3.25-1.3,5.29,1.85-.5,3.08-.87,4.33-1.16,1.77-.43,3.54-.87,5.34-1.17,2.32-.39,6.94,2,8.15,4.06a16.19,16.19,0,0,0,2,2.27c2.6,2.89,2.44,6.22-.53,8.65-5,4.13-10.77,5-16.94,3.16-2.49-.73-2.66-.7-2.64,1.9,0,1.79.06,3.58.21,5.35,0,.53.62,1,.72,1.54.17,1.06.6,2.39.15,3.16a3.39,3.39,0,0,1-2.8,1.4c-2.53-.44-4.3.74-6,2.17-3.43,2.87-6.78,5.82-10.15,8.77A12.23,12.23,0,0,0,69.23,94.83Zm-3.8-71.19-.58,0c-1.69,3.2-3.46,6.37-5.06,9.62C58.4,36.12,57.11,39,56,42c-1.29,3.27-2.31,6.65-3.56,9.93A71.63,71.63,0,0,1,49,59.94c-2.27,4.32-4.85,8.48-7.22,12.75-1,1.78-1.74,3.69-2.73,5.8.94.05,1.39.07,1.85.11,3.69.3,7.37.59,11.05.9a40.48,40.48,0,0,0,5,.48c8.53-.34,17.06-.78,25.59-1.21,1.17-.06,3.09-2.72,2.75-3.85a48.51,48.51,0,0,0-1.84-5.41c-3.5-8-7.25-16-10.57-24.09-2.12-5.17-3.65-10.59-5.44-15.9Q66.41,26.58,65.43,23.64ZM36.65,74.25l.54.19C38,73.2,38.89,72,39.6,70.7c1.77-3.24,3.23-6.68,5.25-9.76a54.89,54.89,0,0,0,5.79-12.46,140,140,0,0,1,8.48-20.23,18.33,18.33,0,0,0,1-2.7l-.45-.28c-.71.67-1.43,1.34-2.13,2-3.57,3.57-7.21,7.08-10.66,10.76-2,2.11-3.61,4.53-5.43,6.79-.8,1-1.68,1.9-2.5,2.87-.46.55-1.15,1.1-1.23,1.72-.37,2.81-.65,5.64-.78,8.47-.22,4.77-.32,9.55-.44,14.32A15.35,15.35,0,0,0,36.65,74.25Zm5.82,7.52-.3.72c.63.65,1.21,1.35,1.88,1.94,3.43,3,6.77,6.14,10.37,8.93,2.25,1.75,4.14,4.74,7.81,3.39.16-.06.38,0,.53,0a4.33,4.33,0,0,0,1.2-.65c2.34-2.2,4.63-4.45,7-6.65,2.49-2.36,5-4.68,7.54-7l-.14-.6c-10.73,0-21.48,2-32.19,0A20.41,20.41,0,0,0,42.47,81.77ZM34.11,68a7.27,7.27,0,0,0,0-.84c-.09-4.67.89-4.79-4.34-3.1-2.66.86-5.28,1.47-8.07.77-1.41-.35-3.2-2-3.37-3.33a4.94,4.94,0,0,1,2.3-4.7,19.54,19.54,0,0,1,11.71-1.36c1,.18,2,.53,2.34-1s-.5-2-1.66-2.17a58.74,58.74,0,0,0-8.85-.76c-4.85.19-9.45,1.45-13,5.09-2,2.06-2.2,4-.64,6.45A17.7,17.7,0,0,0,17,69.61a12.19,12.19,0,0,0,10.17,1.07C29.39,69.9,31.56,69,34.11,68Zm35.4-42.59-.42.21c.46,1.73.86,3.49,1.41,5.2,1.54,4.74,3,9.54,4.77,14.18C78,51.91,81,58.67,83.9,65.46c.2.47.78.77,1.19,1.15a4.72,4.72,0,0,0,.63-1.5c.21-4,.14-8.13.57-12.16.39-3.62-1.16-6.58-2.48-9.67a8.73,8.73,0,0,0-1.29-1.92Q78,35.63,73.37,29.93C72.12,28.4,70.8,26.94,69.51,25.44Zm20,32.75c1-.45,2-.88,3-1.34,2.74-1.24,5.53-2.35,8.48-.79.83.44,1.85,1.29,2,2.07a3.53,3.53,0,0,1-1,2.95,10.9,10.9,0,0,1-4.26,1.59c-2.34.42-4.74.54-7.1.82-1,.12-1.83.42-1.95,1.69s.57,1.62,1.53,2.06c5,2.31,9.76,1.14,14.32-.93,1.88-.86,3.93-2.3,4.06-4.84.18-3.49-4.72-8.89-8.21-9.3s-6.47.66-9.49,1.93C89.38,54.73,88.87,56.39,89.47,58.19ZM63.68,103.76c.42.18.69.41.94.39a12,12,0,0,1,6.73,1.39c.63.34,2.19.2,2.45-.24a101.58,101.58,0,0,0,4.84-9.1c.49-1-.33-1.67-1.5-1.43-2.55.54-5.11,1.06-7.65,1.67-1.46.35-3.09.53-3.78,2.2S64.4,101.93,63.68,103.76Zm-5-.52c-.69-2.6-1.09-5-4-5.69-2.27-.52-4.51-1.16-6.79-1.63-1.56-.33-1.86.11-1.63,1.73.29,2.06.61,4.12.7,6.2.11,2.46.77,2.81,3.11,1.89s4.52-1.39,6.79-2C57.43,103.53,58,103.41,58.69,103.24ZM25.13,63.74c2.56-.38,4.9-.86,7.26-1,1.3-.1,1.66-.69,1.71-1.77a8,8,0,0,0,0-2.13c-.14-.55-.54-1.33-1-1.46-4.14-1.23-8.26-1.32-12,1a3.26,3.26,0,0,0-1.42,2.45,3.3,3.3,0,0,0,1.85,2.08A16.24,16.24,0,0,0,25.13,63.74Zm63.69-1.42.57.29,6.94-1.21a19.94,19.94,0,0,0,3.28-.71c1.13-.42,2.31-1.15,2-2.58a2.19,2.19,0,0,0-2.89-1.44,46.08,46.08,0,0,0-7.63,2.61C90.05,59.76,89.55,61.27,88.82,62.32Z" transform="translate(-8 -14.28)"/><path class="cls-1" d="M65.43,23.64q1,2.94,2,5.88c1.79,5.31,3.32,10.73,5.44,15.9,3.32,8.11,7.07,16,10.57,24.09a48.51,48.51,0,0,1,1.84,5.41c.34,1.13-1.58,3.79-2.75,3.85C74,79.2,65.44,79.64,56.91,80a40.48,40.48,0,0,1-5-.48c-3.68-.31-7.36-.6-11.05-.9-.46,0-.91-.06-1.85-.11,1-2.11,1.75-4,2.73-5.8,2.37-4.27,5-8.43,7.22-12.75a71.63,71.63,0,0,0,3.42-8.06C53.64,48.6,54.66,45.22,56,42c1.16-2.94,2.45-5.83,3.84-8.66,1.6-3.25,3.37-6.42,5.06-9.62ZM63,64.22c1.32-.51,2.67-.95,3.94-1.56a34.65,34.65,0,0,0,3.53-2.07,3.28,3.28,0,0,0,1.23-1.16c.14-.3-.23-.84-.37-1.27a7.8,7.8,0,0,0-1.61.8c-2.33,1.85-4.73,3.47-7.89,3.28a10.72,10.72,0,0,1-6.42-2.71c-.33-.27-1-.15-1.49-.22.19.53.21,1.31.58,1.54C57.06,62.44,59.65,64.13,63,64.22Z" transform="translate(-8 -14.28)"/><path class="cls-1" d="M36.65,74.25a15.35,15.35,0,0,1-.2-2c.12-4.77.22-9.55.44-14.32.13-2.83.41-5.66.78-8.47.08-.62.77-1.17,1.23-1.72.82-1,1.7-1.89,2.5-2.87,1.82-2.26,3.46-4.68,5.43-6.79,3.45-3.68,7.09-7.19,10.66-10.76.7-.69,1.42-1.36,2.13-2l.45.28a18.33,18.33,0,0,1-1,2.7,140,140,0,0,0-8.48,20.23,54.89,54.89,0,0,1-5.79,12.46c-2,3.08-3.48,6.52-5.25,9.76-.71,1.3-1.6,2.5-2.41,3.74Z" transform="translate(-8 -14.28)"/><path class="cls-1" d="M42.47,81.77a20.41,20.41,0,0,1,3.67,0c10.71,2,21.46,0,32.19,0l.14.6c-2.52,2.33-5,4.65-7.54,7-2.34,2.2-4.63,4.45-7,6.65a4.33,4.33,0,0,1-1.2.65c-.15.06-.37,0-.53,0-3.67,1.35-5.56-1.64-7.81-3.39-3.6-2.79-6.94-5.92-10.37-8.93-.67-.59-1.25-1.29-1.88-1.94Z" transform="translate(-8 -14.28)"/><path class="cls-1" d="M34.11,68c-2.55,1-4.72,1.87-6.93,2.65A12.19,12.19,0,0,1,17,69.61a17.7,17.7,0,0,1-6.47-6.53c-1.56-2.45-1.4-4.39.64-6.45,3.58-3.64,8.18-4.9,13-5.09a58.74,58.74,0,0,1,8.85.76c1.16.14,2,.65,1.66,2.17s-1.31,1.18-2.34,1a19.54,19.54,0,0,0-11.71,1.36,4.94,4.94,0,0,0-2.3,4.7c.17,1.29,2,3,3.37,3.33,2.79.7,5.41.09,8.07-.77,5.23-1.69,4.25-1.57,4.34,3.1A7.27,7.27,0,0,1,34.11,68Z" transform="translate(-8 -14.28)"/><path class="cls-1" d="M69.51,25.44c1.29,1.5,2.61,3,3.86,4.49q4.6,5.68,9.15,11.43a8.73,8.73,0,0,1,1.29,1.92c1.32,3.09,2.87,6,2.48,9.67-.43,4-.36,8.11-.57,12.16a4.72,4.72,0,0,1-.63,1.5c-.41-.38-1-.68-1.19-1.15C81,58.67,78,51.91,75.27,45,73.45,40.39,72,35.59,70.5,30.85c-.55-1.71-1-3.47-1.41-5.2Z" transform="translate(-8 -14.28)"/><path class="cls-1" d="M89.47,58.19c-.6-1.8-.09-3.46,1.39-4.09,3-1.27,6.11-2.32,9.49-1.93s8.39,5.81,8.21,9.3c-.13,2.54-2.18,4-4.06,4.84-4.56,2.07-9.36,3.24-14.32.93-1-.44-1.64-.84-1.53-2.06s.95-1.57,1.95-1.69c2.36-.28,4.76-.4,7.1-.82A10.9,10.9,0,0,0,102,61.08a3.53,3.53,0,0,0,1-2.95c-.12-.78-1.14-1.63-2-2.07-3-1.56-5.74-.45-8.48.79C91.5,57.31,90.49,57.74,89.47,58.19Z" transform="translate(-8 -14.28)"/><path class="cls-2" d="M63.68,103.76c.72-1.83,1.35-3.49,2-5.12s2.32-1.85,3.78-2.2c2.54-.61,5.1-1.13,7.65-1.67,1.17-.24,2,.38,1.5,1.43a101.58,101.58,0,0,1-4.84,9.1c-.26.44-1.82.58-2.45.24a12,12,0,0,0-6.73-1.39C64.37,104.17,64.1,103.94,63.68,103.76Z" transform="translate(-8 -14.28)"/><path class="cls-2" d="M58.69,103.24c-.69.17-1.26.29-1.82.45-2.27.66-4.6,1.18-6.79,2s-3,.57-3.11-1.89c-.09-2.08-.41-4.14-.7-6.2-.23-1.62.07-2.06,1.63-1.73,2.28.47,4.52,1.11,6.79,1.63C57.6,98.21,58,100.64,58.69,103.24Z" transform="translate(-8 -14.28)"/><path class="cls-3" d="M25.13,63.74a16.24,16.24,0,0,1-3.64-.81,3.3,3.3,0,0,1-1.85-2.08,3.26,3.26,0,0,1,1.42-2.45c3.79-2.37,7.91-2.28,12.05-1,.45.13.85.91,1,1.46a8,8,0,0,1,0,2.13c-.05,1.08-.41,1.67-1.71,1.77C30,62.88,27.69,63.36,25.13,63.74Z" transform="translate(-8 -14.28)"/><path class="cls-3" d="M88.82,62.32c.73-1,1.23-2.56,2.23-3a46.08,46.08,0,0,1,7.63-2.61,2.19,2.19,0,0,1,2.89,1.44c.35,1.43-.83,2.16-2,2.58a19.94,19.94,0,0,1-3.28.71l-6.94,1.21Z" transform="translate(-8 -14.28)"/><path class="cls-3" d="M63,64.22c-3.32-.09-5.91-1.78-8.5-3.37-.37-.23-.39-1-.58-1.54.5.07,1.16-.05,1.49.22a10.72,10.72,0,0,0,6.42,2.71c3.16.19,5.56-1.43,7.89-3.28a7.8,7.8,0,0,1,1.61-.8c.14.43.51,1,.37,1.27a3.28,3.28,0,0,1-1.23,1.16,34.65,34.65,0,0,1-3.53,2.07C65.64,63.27,64.29,63.71,63,64.22Z" transform="translate(-8 -14.28)"/></svg>