<?xml version="1.0" encoding="utf-8"?>
<!DOCTYPE svg PUBLIC "-//W3C//DTD SVG 20010904//EN" "http://www.w3.org/TR/2001/REC-SVG-20010904/DTD/svg10.dtd">
<svg version="1.0" xmlns="http://www.w3.org/2000/svg" width="266pt" height="266pt" viewBox="0 0 266 266" style="" preserveAspectRatio="xMidYMid meet">
<g fill="#FFD555FF" stroke="#FFD555FF">
<path d="M 171.397 82.369 C 165.271 90.047 162.430 104.438 163.378 123.000 C 164.120 137.543 162.867 152.562 160.732 154.696 C 158.650 156.779 155.271 155.851 149.834 151.704 C 140.717 144.750 138.782 136.192 143.888 125.399 C 149.176 114.221 148.916 105.994 143.275 106.006 C 141.749 106.010 139.364 106.605 137.976 107.329 C 130.627 111.165 126.202 111.249 123.765 107.600 C 122.704 106.011 122.846 100.096 124.049 95.765 C 125.865 89.222 124.534 88.195 113.753 87.821 C 103.403 87.462 103.547 87.393 98.155 95.258 C 93.990 101.333 86.835 106.713 74.480 113.061 C 63.650 118.625 59.859 121.399 55.750 126.765 C 50.955 133.027 52.867 141.361 59.924 144.961 C 62.166 146.105 64.000 146.751 64.000 146.398 C 64.000 146.044 64.563 146.218 65.250 146.784 C 67.934 148.992 73.377 149.521 88.500 149.043 C 93.842 148.874 97.995 149.319 101.000 150.381 C 103.580 151.292 108.743 151.977 113.101 151.985 C 117.281 151.993 122.231 152.527 124.101 153.172 C 128.705 154.758 136.679 160.749 143.842 168.001 C 150.692 174.936 152.788 175.385 158.618 171.162 C 161.355 169.179 163.653 166.063 166.244 160.821 C 171.214 150.765 177.697 144.659 185.182 142.984 C 189.928 141.922 191.827 142.010 199.089 143.627 C 204.378 144.805 211.397 145.500 218.000 145.500 L 228.500 145.500 228.500 147.991 C 228.500 150.066 227.582 150.865 223.000 152.773 C 218.600 154.605 216.146 154.983 210.729 154.664 L 203.959 154.264 204.526 157.382 C 204.838 159.097 204.412 162.733 203.580 165.462 C 202.407 169.313 202.340 170.607 203.284 171.243 C 204.486 172.052 211.630 171.729 215.500 170.690 C 216.600 170.395 217.985 170.119 218.579 170.077 C 221.425 169.875 229.681 163.033 233.635 157.599 C 240.513 148.146 241.449 142.163 239.904 117.534 C 239.352 108.753 238.768 101.434 238.604 101.271 C 238.441 101.108 235.746 102.107 232.615 103.491 C 224.891 106.907 218.902 108.126 210.000 108.093 C 198.644 108.051 192.503 105.840 186.418 99.600 C 182.716 95.804 181.011 93.100 180.140 89.643 C 179.483 87.033 179.178 84.522 179.461 84.062 C 179.745 83.603 179.083 82.993 177.989 82.707 C 176.895 82.421 176.000 81.470 176.000 80.594 C 176.000 78.069 174.307 78.722 171.397 82.369 "/></g>
<g fill="#000000FF" stroke="#000000FF">
<path d="M 245.994 4.934 C 238.509 7.211 221.195 19.923 211.000 30.627 C 207.425 34.381 205.736 36.373 207.246 35.055 C 211.902 30.992 211.606 33.745 206.917 38.119 C 198.132 46.311 190.128 49.857 187.680 46.639 C 185.746 44.097 169.449 39.971 159.000 39.377 C 152.128 38.986 149.915 39.132 151.000 39.903 C 152.211 40.764 151.970 40.972 149.750 40.985 C 148.238 40.993 147.000 40.550 147.000 40.000 C 147.000 39.450 144.525 39.000 141.500 39.000 C 138.203 39.000 136.000 39.436 136.000 40.088 C 136.000 40.813 132.580 41.117 125.750 40.997 C 115.083 40.811 110.364 41.493 108.346 43.511 C 107.692 44.165 101.834 46.397 95.328 48.471 C 88.823 50.544 83.288 52.436 83.029 52.675 C 82.770 52.913 83.220 53.527 84.029 54.039 C 86.845 55.820 95.092 54.989 104.121 52.013 C 118.082 47.412 123.701 46.781 146.669 47.232 C 166.786 47.627 167.838 47.750 177.373 50.821 C 182.803 52.569 189.216 54.000 191.623 54.000 C 194.030 54.000 196.000 54.260 196.000 54.579 C 196.000 54.897 193.280 58.486 189.956 62.553 C 184.331 69.437 179.040 77.510 179.012 79.250 C 178.948 83.248 191.287 71.028 204.473 54.035 C 222.774 30.450 238.414 16.053 249.267 12.802 C 258.239 10.114 258.655 15.700 250.744 32.626 C 247.692 39.157 243.916 48.325 242.354 53.000 C 239.577 61.307 239.517 61.953 239.693 81.500 C 239.792 92.500 240.348 104.425 240.929 108.000 C 241.510 111.575 241.984 120.800 241.982 128.500 C 241.980 140.562 241.503 144.809 238.532 159.180 C 234.401 179.165 232.047 185.075 222.471 199.500 C 211.843 215.511 191.219 235.133 178.500 241.335 C 175.750 242.676 169.000 245.962 163.500 248.637 L 153.500 253.500 143.000 253.430 C 131.003 253.350 128.201 252.685 111.055 245.849 C 81.607 234.108 60.060 217.494 50.799 199.388 C 40.486 179.226 37.395 162.492 36.597 122.500 C 36.301 107.650 35.568 93.475 34.969 91.000 C 32.522 80.885 29.905 74.857 23.443 64.445 C 12.073 46.127 8.838 39.502 9.190 35.257 C 9.626 29.998 13.091 28.366 20.313 30.016 C 26.689 31.474 50.494 43.348 59.711 49.668 C 63.445 52.228 74.150 62.013 83.500 71.412 C 98.493 86.483 100.475 88.158 100.291 85.599 C 99.964 81.060 93.615 72.478 82.088 60.994 C 69.956 48.907 62.411 43.380 46.085 34.620 C 28.087 24.962 18.924 22.136 11.819 24.049 C 5.660 25.707 3.000 29.181 3.000 35.563 C 3.000 41.530 5.117 46.059 16.528 64.500 C 23.225 75.323 27.085 83.616 29.096 91.500 C 29.657 93.700 30.503 108.775 30.975 125.000 C 31.907 157.058 33.554 170.083 38.612 185.410 C 45.763 207.080 55.845 220.282 74.500 232.408 C 77.800 234.553 82.300 237.530 84.500 239.024 C 93.126 244.881 115.008 254.416 126.611 257.375 C 135.621 259.672 146.011 260.378 151.977 259.098 C 163.160 256.700 184.531 245.730 196.000 236.500 C 208.961 226.069 224.128 209.517 228.484 201.049 C 230.353 197.415 232.992 194.285 233.011 195.679 C 233.018 196.130 234.591 193.683 236.508 190.239 C 238.425 186.796 239.882 183.421 239.746 182.739 C 239.611 182.058 240.028 181.601 240.673 181.724 C 241.325 181.849 242.315 179.854 242.904 177.224 C 243.487 174.626 244.235 171.375 244.568 170.000 C 245.041 168.047 244.939 167.828 244.102 169.000 C 242.423 171.351 242.692 168.149 245.231 155.560 C 247.034 146.622 247.587 145.076 248.113 147.500 L 248.763 150.500 248.958 147.000 C 249.065 145.075 249.390 142.600 249.680 141.500 C 250.574 138.105 250.015 110.538 248.979 106.925 C 248.440 105.049 248.000 101.121 248.000 98.198 C 248.000 95.274 247.604 93.127 247.119 93.426 C 246.085 94.066 244.975 81.737 246.000 81.000 C 246.383 80.725 246.708 78.475 246.723 76.000 C 246.782 66.319 251.073 51.407 258.231 36.000 C 264.134 23.296 264.338 22.674 264.635 16.500 C 264.940 10.132 263.707 7.519 259.274 5.147 C 256.893 3.872 249.855 3.760 245.994 4.934 "/></g>
<g fill="#776428FF" stroke="#776428FF">
<path d="M 118.000 49.482 C 114.425 50.241 108.159 52.018 104.075 53.431 C 96.398 56.087 82.774 57.061 81.527 55.044 C 81.202 54.518 80.380 54.301 79.701 54.561 C 78.963 54.844 81.314 57.943 85.548 62.268 C 93.788 70.682 102.239 81.936 101.589 83.629 C 100.918 85.376 104.437 86.242 114.896 86.905 C 126.435 87.636 126.935 88.140 125.129 97.227 C 123.408 105.887 124.642 108.832 129.849 108.489 C 131.857 108.356 133.613 108.136 133.750 107.999 C 133.888 107.862 134.338 107.653 134.750 107.535 C 135.163 107.416 137.221 106.553 139.323 105.616 C 144.045 103.511 146.417 104.178 148.025 108.060 C 149.579 111.812 148.781 118.055 145.915 124.563 C 141.179 135.317 141.650 141.393 147.741 148.136 C 154.026 155.092 160.016 156.676 161.566 151.792 C 161.934 150.634 162.569 137.494 162.977 122.593 C 163.722 95.426 164.515 89.699 168.136 85.336 C 168.746 84.601 168.920 84.000 168.523 84.000 C 168.126 84.000 170.197 82.011 173.125 79.579 C 176.053 77.148 178.867 75.418 179.379 75.734 C 179.890 76.050 179.998 75.806 179.618 75.191 C 178.902 74.032 182.426 68.824 189.765 60.199 L 194.030 55.187 188.765 54.776 C 185.869 54.550 179.450 53.077 174.500 51.503 C 165.982 48.795 164.403 48.627 145.000 48.372 C 130.456 48.181 122.611 48.503 118.000 49.482 "/></g>
<g fill="#CFCFCFFF" stroke="#CFCFCFFF">
<path d="M 234.069 158.400 C 232.351 160.897 229.492 164.049 227.715 165.404 C 223.331 168.747 214.061 172.972 211.000 173.020 C 209.023 173.051 207.815 174.257 205.225 178.780 C 200.845 186.431 194.664 194.587 186.053 204.078 C 178.227 212.702 174.657 214.343 168.906 211.961 C 163.684 209.798 162.599 207.038 163.500 198.207 C 163.933 193.968 164.216 189.375 164.129 188.000 C 163.375 176.111 162.759 170.000 162.315 170.000 C 162.026 170.000 160.394 171.173 158.690 172.607 C 156.166 174.731 154.843 175.130 151.546 174.761 L 147.500 174.307 147.394 188.404 C 147.311 199.532 146.732 205.130 144.644 214.989 C 141.608 229.330 141.644 229.000 143.105 229.000 C 144.129 229.000 145.641 228.052 156.434 220.641 C 159.923 218.245 160.537 218.108 161.861 219.433 C 163.064 220.635 163.130 221.420 162.200 223.461 C 160.401 227.408 152.986 234.966 148.835 237.084 C 144.004 239.549 140.914 239.507 137.640 236.931 C 135.583 235.313 135.145 235.215 135.632 236.482 C 136.630 239.083 132.463 242.543 125.964 244.511 C 122.684 245.504 120.000 246.624 120.000 247.000 C 120.000 248.950 133.032 251.500 143.000 251.500 L 153.500 251.500 168.000 244.412 C 183.745 236.716 193.181 229.948 206.110 217.076 C 213.917 209.304 225.702 192.551 230.507 182.395 C 232.829 177.485 238.376 155.100 237.498 154.180 C 237.330 154.004 235.787 155.903 234.069 158.400 "/></g>
<g fill="#CFCFCFFF" stroke="#CFCFCFFF">
<path d="M 245.248 16.455 C 233.085 23.410 220.659 35.630 206.546 54.517 C 201.622 61.108 193.859 70.270 189.296 74.879 C 182.160 82.086 181.000 83.734 181.000 86.668 C 181.000 90.822 183.828 96.561 187.673 100.211 C 195.938 108.058 216.492 109.137 232.631 102.571 L 238.441 100.207 238.119 91.854 C 237.942 87.259 237.719 80.350 237.624 76.500 L 237.451 69.500 237.225 75.750 C 237.037 80.976 236.710 82.000 235.231 82.000 C 232.559 82.000 211.025 76.458 206.750 74.670 C 199.818 71.771 202.348 68.893 213.000 67.560 C 228.681 65.597 236.403 63.214 235.416 60.642 C 235.133 59.903 231.459 57.544 227.253 55.400 C 223.047 53.255 219.132 50.684 218.553 49.687 C 217.005 47.022 220.691 44.424 227.192 43.600 C 234.484 42.675 242.000 40.108 242.000 38.541 C 242.000 37.827 240.683 36.697 239.072 36.030 C 237.462 35.363 235.385 33.977 234.456 32.951 C 232.868 31.196 232.880 30.888 234.662 27.792 C 236.098 25.297 238.791 23.416 245.779 20.024 C 250.850 17.563 255.000 15.200 255.000 14.774 C 255.000 13.148 249.320 14.127 245.248 16.455 "/></g>
<g fill="#CFCFCFFF" stroke="#CFCFCFFF">
<path d="M 11.974 32.875 L 9.500 34.933 14.500 34.972 C 21.528 35.027 26.759 36.664 27.515 39.046 C 27.897 40.251 27.330 42.348 26.072 44.383 C 23.479 48.579 23.430 51.625 25.934 52.965 C 26.998 53.534 33.186 54.003 39.684 54.006 C 52.829 54.012 58.594 55.144 59.465 57.890 C 60.468 61.051 59.052 62.778 49.472 70.073 C 39.929 77.341 38.116 79.516 40.018 81.417 C 41.557 82.957 52.196 82.483 61.000 80.483 C 72.427 77.887 80.306 77.459 81.874 79.349 C 84.945 83.049 80.324 87.330 65.000 94.983 C 50.742 102.105 45.423 107.616 49.524 111.020 C 51.468 112.634 69.161 111.698 76.742 109.581 C 85.297 107.192 95.056 99.999 98.331 93.670 L 99.795 90.841 82.648 73.574 C 73.216 64.077 62.579 54.200 59.008 51.623 C 50.783 45.689 23.791 32.242 18.474 31.430 C 15.281 30.943 13.937 31.242 11.974 32.875 "/></g>
<g fill="#000000FF" stroke="#000000FF">
<path d="M 52.000 152.178 C 52.000 152.551 54.588 153.863 57.750 155.092 C 63.452 157.310 67.406 157.528 86.500 156.678 C 90.230 156.512 90.636 156.770 92.513 160.500 C 93.620 162.700 95.470 165.979 96.624 167.786 L 98.722 171.073 100.388 168.530 C 101.305 167.132 102.481 164.865 103.002 163.494 C 104.486 159.592 106.640 160.506 111.488 167.091 C 115.817 172.972 117.535 177.177 118.189 183.500 C 118.420 185.730 119.013 186.500 120.500 186.500 C 122.179 186.500 122.549 185.731 122.806 181.713 C 123.420 172.122 115.111 159.166 105.239 154.318 L 99.500 151.500 75.750 151.500 C 62.688 151.500 52.000 151.805 52.000 152.178 M 99.823 157.869 C 101.214 158.752 100.553 165.540 98.981 166.512 C 98.042 167.092 94.911 158.423 95.754 157.579 C 96.570 156.764 98.271 156.885 99.823 157.869 "/></g>
<g fill="#000000FF" stroke="#000000FF">
<path d="M 182.228 146.115 C 176.865 148.786 171.270 155.083 167.534 162.652 C 165.190 167.402 164.634 169.867 164.574 175.783 C 164.519 181.227 164.879 183.305 166.000 184.016 C 168.738 185.752 169.495 184.411 170.037 176.866 C 170.614 168.839 174.907 158.000 177.510 158.000 C 178.259 158.000 179.884 159.800 181.120 162.000 C 182.357 164.200 183.658 166.000 184.011 166.000 C 184.365 166.000 185.907 162.400 187.439 158.000 C 190.612 148.886 190.604 148.889 201.500 151.520 C 204.800 152.317 209.750 152.966 212.500 152.962 C 217.481 152.956 226.000 149.940 226.000 148.182 C 226.000 147.674 223.001 147.471 219.250 147.725 C 214.936 148.018 209.794 147.571 205.000 146.488 C 192.873 143.748 187.169 143.655 182.228 146.115 M 184.085 159.315 C 182.801 160.599 182.462 160.253 181.640 156.822 C 181.192 154.954 181.528 153.612 182.749 152.383 C 184.419 150.703 184.515 150.798 184.818 154.442 C 184.993 156.544 184.663 158.737 184.085 159.315 "/></g>
<g fill="#98FF98FF" stroke="#98FF98FF">
<path d="M 188.974 159.275 C 186.930 165.928 186.040 167.559 184.314 167.808 C 182.811 168.025 181.643 167.205 180.358 165.029 C 177.932 160.922 176.143 161.523 173.918 167.195 C 172.114 171.794 172.116 171.902 174.001 172.500 C 175.059 172.836 176.812 172.636 177.896 172.055 C 178.981 171.475 181.270 171.000 182.984 171.000 C 187.938 171.000 191.551 168.471 195.410 162.302 C 200.519 154.135 200.353 153.386 193.000 151.445 C 191.889 151.152 190.845 153.182 188.974 159.275 "/></g>
<g fill="#000000FF" stroke="#000000FF">
<path d="M 151.674 226.112 L 143.848 231.184 134.789 226.554 C 129.806 224.007 125.228 222.107 124.615 222.331 C 123.176 222.858 132.252 231.396 137.684 234.625 C 141.396 236.832 142.313 236.993 145.822 236.048 C 150.156 234.881 156.969 228.894 159.473 224.052 C 160.341 222.374 160.702 221.009 160.276 221.020 C 159.849 221.031 155.978 223.323 151.674 226.112 "/></g>
<g fill="#000000FF" stroke="#000000FF">
<path d="M 82.030 162.500 C 82.011 166.047 86.580 174.424 90.328 177.715 C 96.384 183.032 106.547 184.310 110.594 180.263 C 113.244 177.613 111.636 176.481 105.680 176.803 C 102.593 176.970 99.040 176.603 97.784 175.987 C 96.528 175.371 92.472 171.635 88.770 167.684 C 83.750 162.325 82.038 161.008 82.030 162.500 "/></g>
<g fill="#000000FF" stroke="#000000FF">
<path d="M 197.658 162.874 C 193.369 169.824 190.105 172.235 184.000 172.963 C 180.293 173.405 179.444 173.896 179.180 175.750 C 178.884 177.837 179.239 178.000 184.093 178.000 C 190.813 178.000 197.239 174.421 199.882 169.207 C 202.101 164.828 203.607 157.000 202.230 157.000 C 201.710 157.000 199.653 159.643 197.658 162.874 "/></g>
<g fill="#98FF98FF" stroke="#98FF98FF">
<path d="M 104.153 165.990 C 103.580 167.634 102.000 170.091 100.641 171.450 C 98.252 173.839 98.236 173.940 100.173 174.555 C 101.273 174.904 103.822 174.832 105.837 174.395 C 107.852 173.957 110.175 173.556 111.000 173.503 C 111.825 173.450 112.360 172.783 112.189 172.020 C 111.894 170.707 106.191 163.000 105.514 163.000 C 105.339 163.000 104.727 164.345 104.153 165.990 "/></g>
<g fill="#98FF98FF" stroke="#98FF98FF">
<path d="M 84.634 158.783 C 84.048 159.732 95.566 172.718 96.336 171.977 C 96.635 171.689 95.543 169.464 93.910 167.032 C 92.277 164.600 90.680 161.573 90.362 160.305 C 89.965 158.722 89.052 158.000 87.451 158.000 C 86.168 158.000 84.900 158.352 84.634 158.783 "/></g>
</svg>
