<svg id="jun-e-logo-text-drawings_Image" data-name="jun-e-logo-text-drawings Image" xmlns="http://www.w3.org/2000/svg" viewBox="0 0 884.41 283.46"><defs><style>.cls-1{fill:#3630a5;}.cls-2{fill:#27b6c1;}.cls-3{fill:#fff;}.cls-4{fill:#32373c;}.cls-5{fill:#555d5e;}.cls-6{fill:#bb4e58;}.cls-7{fill:#e10098;}.cls-8{fill:#e10198;}.cls-9{fill:#bc4e59;}</style></defs><rect class="cls-1" x="288.31" y="20" width="571.44" height="151.5"/><rect class="cls-2" x="437.89" y="171.5" width="410.11" height="78.35"/><path class="cls-3" d="M364.22,131.68c.59,3.17.66,5.39,1.48,7.29.53,1.22,2.14,2,3.27,3,.46-1.21,1.34-2.42,1.31-3.61-.06-3.14-.77-6.28-.76-9.42,0-6.72.55-13.45.45-20.17,0-2.59.54-3.3,3.07-3.42,1.21-.06,3.26-1.44,3.35-2.36.21-2.32-1.74-2.62-3.75-2.48-7.48.55-15,1.07-22.46,1.51-2.09.12-4.29-.16-4.24,2.93s2.1,3.24,4.43,3.52a47.93,47.93,0,0,1,9.65,1.8c4,1.35,5.05,3.62,4.12,7.79-2.38,10.64-9.85,16.64-19.42,20.28-2.41.92-5.52.45-8.23,0a44.31,44.31,0,0,1-7.65-2.34c-9.28-3.21-14.66-9.76-16.26-19.39-.73-4.39-1.36-8.8-1.93-13.21-1.77-13.73.6-26.41,11.56-35.75a71.79,71.79,0,0,1,29.75-15c2.7-.67,5.75.13,8.65.14a36.47,36.47,0,0,0,4-.4c-.76-1.21-1.26-2.83-2.35-3.57-4.35-2.94-9.15-2.68-13.93-1.22a84.09,84.09,0,0,0-25.86,12.66c-9.5,7-15.05,15.89-17,27.39-1.63,9.78.43,19.24,2,28.78,1.89,11.31,7.33,20.12,18.16,24.62,6.77,2.81,14,5.49,21.36,2.68,4.27-1.64,8-4.8,11.82-7.43A62.14,62.14,0,0,0,364.22,131.68Z"/><path class="cls-3" d="M505.59,49.21l-2.29.6c0,7-.17,14.09,0,21.13.31,10.92,1,21.84,1.28,32.77.23,7.87,0,15.75.35,23.62.07,1.4,2,2.72,3.07,4.08.78-1.43,2-2.79,2.26-4.31,1.46-8.11,2.47-16.33,7.18-23.44,1.64-2.46,3.48-5.72,6.68-4.08,1.63.83,2.43,4.41,2.58,6.81.46,7.07.31,14.18.66,21.27.06,1.2,1.38,2.34,2.12,3.52.64-1.08,1.84-2.16,1.83-3.23-.06-7.58-.1-15.19-.75-22.74a20.31,20.31,0,0,0-3.27-8.71c-1.81-2.88-5.6-3-7.88-.39-2.4,2.72-4.35,5.84-6.56,8.74a13.3,13.3,0,0,1-2,1.73,7.66,7.66,0,0,1-.68-1.82q-.85-17.13-1.66-34.27c-.25-5.46-.26-10.93-.73-16.36C507.67,52.44,506.37,50.85,505.59,49.21Z"/><path class="cls-3" d="M630.73,82.87h.18c0-7.5.08-15,0-22.49a40.08,40.08,0,0,0-1-8.31c-.25-1.09-1.63-1.92-2.5-2.87-.46,1-1.33,2.11-1.32,3.15.1,19.07.36,38.14.46,57.21a110.75,110.75,0,0,1-.68,14.69c-.6,4.68,1,6.54,5.76,6.31,8.08-.39,16.17-.44,24.26-.69.8,0,2-.28,2.28-.79.34-.77.34-2.3-.17-2.73a6.79,6.79,0,0,0-3.79-1.72c-6.2-.24-12.41-.35-18.62-.25-3.88.06-4.79-2.23-4.81-5.35C630.7,107,630.73,94.92,630.73,82.87Z"/><path class="cls-3" d="M479.39,197.66l1.18-1c-1.51-1.88-2.7-4.27-4.63-5.52-2.33-1.52-5.13-3-8.19-1s-5.39,4.74-6,8.45c-.89,5.5-1.74,11-2.17,16.56-.2,2.49-.9,3.8-3.37,4.11-1,.12-2,.5-3,.55-2.1.1-2.47,1.24-2.26,3.07.3,2.55,2,3.37,4,2.81,3.88-1.06,4.9.84,5.27,4.15a46.82,46.82,0,0,0,1.59,8.22c.28.93,1.7,1.52,2.59,2.27.57-1,1.45-1.91,1.61-2.95a14.73,14.73,0,0,0-.32-4.16c-1.5-10.59-2.56-9.71,8.62-12.28,1.3-.3,3.3-1.76,3.3-2.68,0-2.33-1.69-3.42-4.24-3-2.91.53-5.86.84-9.92,1.41,1.31-6.68,2.17-12.78,3.78-18.68,1-3.62,6.53-4.7,9.6-2.37C477.74,196.29,478.56,197,479.39,197.66Z"/><path class="cls-3" d="M390.57,100.29a17.35,17.35,0,0,0-1,4c-.16,11.31-.26,22.63-.21,34,0,1.1,1.17,2.2,1.8,3.29,1-.86,2.49-1.58,2.76-2.63a110,110,0,0,0,2-10.84c1-6.22,2.49-12.19,6.6-17.21,3.1-3.8,5.35-4.32,9.46-2.23a7.79,7.79,0,0,0,2.77.25c.06-1.06.48-2.27.11-3.15-2.27-5.38-8.52-6.26-12.89-1.87-2.23,2.23-4.35,4.56-6.65,7C393.12,107.15,395.66,102.44,390.57,100.29Z"/><path class="cls-3" d="M837,43.24l-1.44.21a19,19,0,0,0-.75,3.81c0,6.61.33,13.22.21,19.82-.31,16.78-.82,33.56-1.15,50.34a7,7,0,0,0,1.17,3.9c.59.83,2.46,1.78,2.92,1.46a4.48,4.48,0,0,0,1.71-3.23c0-1.59-1.08-3.17-1.1-4.77-.1-8.11,0-16.22,0-24.33.07-14.47.2-28.95.15-43.42C838.75,45.77,837.61,44.5,837,43.24Z"/><path class="cls-3" d="M506.24,215.21a27,27,0,0,0-.18,3.08c.23,5,.52,10.06.82,15.09a9.45,9.45,0,0,0,.51,3.35c.42.9,1.44,1.52,2.2,2.27.66-.84,1.8-1.63,1.89-2.53.29-2.77.13-5.59.23-8.38.21-5.49.71-6,6-6.66a13.26,13.26,0,0,0,3.38-.43c1.08-.44,2.85-1.54,2.75-2.09a6.38,6.38,0,0,0-2.21-3.48c-.62-.52-2-.21-3-.21C514.78,215.2,510.92,215.21,506.24,215.21Z"/><path class="cls-4" d="M736,217.88c-2.33,4.91.29,10.33-4.2,15.07-.66-2.41-1.48-4-1.45-5.58.12-5.07.58-10.14.87-15.21.18-3,.45-6,.4-9-.08-3.89.78-5.1,4.61-5.31,3.12-.17,6.35-.64,9.38-.13,4.9.83,7.15,5.31,5.06,9.81a19.86,19.86,0,0,1-4.62,6.36c-2.83,2.5-2.1,4.42,0,6.68a38.18,38.18,0,0,1,5.12,6c.72,1.18.31,3.06.41,4.62-1.26-.48-2.86-.62-3.71-1.49-2.9-3-5.48-6.25-8.31-9.29A21.49,21.49,0,0,0,736,217.88Zm8.77-15.18c-5.79,0-8,1.56-8.15,5-.14,2.82,1.89,2.56,3.58,2.6,2.91.07,6.87-3.4,6.41-5.75C746.46,203.71,745.16,203.05,744.8,202.7Z"/><path class="cls-4" d="M678.7,197.06c7,.12,15.44,6.73,17.08,13.1,1.25,4.87-3.66,13.94-8.6,16-2.12.85-4.27,1.64-6.3,2.67a6.25,6.25,0,0,1-8.94-3.4c-2.51-7.88-2.51-16-2-24.15a4.3,4.3,0,0,1,2.46-3A35.39,35.39,0,0,1,678.7,197.06Zm-4.13,15.13h0a60,60,0,0,0,0,6.84c.31,2.59,1.59,5.18,4.65,3.84,3.47-1.51,7.29-3.33,9.62-6.12,4.56-5.48,3.81-7.7-2.21-11.89a21.35,21.35,0,0,0-2.61-1.55c-5.87-2.89-9.57-.62-9.55,5.83Z"/><path class="cls-4" d="M610.65,219.14c.65-8.55,3.33-14.61,9.08-19.09,3.91-3.05,10.42-1.27,12.9,3.41,4.54,8.6,3.29,20.6-3.07,27.85-5.62,6.41-11.82,2.73-15.93-3.06C611.63,225.44,611.34,221.43,610.65,219.14Zm20.77-6.4a22.21,22.21,0,0,0-.93-4.08c-1.32-3.53-4.77-5.11-7.36-3.6-5.75,3.34-9.14,13.43-6.54,19.44,1.59,3.64,6.8,5.27,9.13,2.65C629.06,223.4,631.57,219.16,631.42,212.74Z"/><path class="cls-5" d="M488.12,241.59c-7.76.4-9.83-6.28-9.12-13.15.4-3.9,2.7-7.77,4.75-11.3s7.46-3.6,9.8-.4a47.2,47.2,0,0,1,5.66,9.8C501.85,233,495.14,241.85,488.12,241.59Zm1.07-5.87c2.54-1.53,5.58-4.07,6.06-6.61.43-2.21-2.23-5.18-3.95-7.5-.47-.62-3.25-.61-3.69,0a106.32,106.32,0,0,0-5.38,9.2C482.82,235.09,486,237.66,489.19,235.72Z"/><path class="cls-5" d="M479.39,197.66c-.83-.67-1.65-1.37-2.5-2-3.07-2.33-8.62-1.25-9.6,2.37-1.61,5.9-2.47,12-3.78,18.68,4.06-.57,7-.88,9.92-1.41,2.55-.46,4.24.63,4.24,3,0,.92-2,2.38-3.3,2.68-11.18,2.57-10.12,1.69-8.62,12.28a14.73,14.73,0,0,1,.32,4.16c-.16,1-1,2-1.61,2.95-.89-.75-2.31-1.34-2.59-2.27a46.82,46.82,0,0,1-1.59-8.22c-.37-3.31-1.39-5.21-5.27-4.15-2.06.56-3.73-.26-4-2.81-.21-1.83.16-3,2.26-3.07,1,0,2-.43,3-.55,2.47-.31,3.17-1.62,3.37-4.11.43-5.54,1.28-11.06,2.17-16.56.6-3.71,2.83-6.41,6-8.45s5.86-.5,8.19,1c1.93,1.25,3.12,3.64,4.63,5.52Z"/><path class="cls-5" d="M506.24,215.21c4.68,0,8.54,0,12.39,0,1,0,2.35-.31,3,.21a6.38,6.38,0,0,1,2.21,3.48c.1.55-1.67,1.65-2.75,2.09a13.26,13.26,0,0,1-3.38.43c-5.26.64-5.76,1.17-6,6.66-.1,2.79.06,5.61-.23,8.38-.09.9-1.23,1.69-1.89,2.53-.76-.75-1.78-1.37-2.2-2.27a9.45,9.45,0,0,1-.51-3.35c-.3-5-.59-10.06-.82-15.09A27,27,0,0,1,506.24,215.21Z"/><path class="cls-6" d="M746.85,46.39a28.47,28.47,0,0,1,2.62,4.6c3.21,8.95,6.26,18,9.4,26.95,3.81,10.91,7.68,21.81,11.49,32.72a60.45,60.45,0,0,1,2,6.56,6.13,6.13,0,0,1-.13,3.78c-.34.66-2.43,1.22-2.94.82a6.76,6.76,0,0,1-1.86-3.43c-1.38-5.09-2.59-10.23-3.93-15.34-.63-2.4-2.38-2.9-4.7-2.86-6.22.12-12.45.18-18.66,0-3.12-.12-4.75,1-5.5,4-1.58,6.27-3.16,12.56-5,18.75-.37,1.23-2.05,2.05-3.13,3.06-.69-1.58-2.26-3.39-1.91-4.69,3-11.16,6.51-22.19,9.58-33.34,2.86-10.42,5.31-20.95,8.07-31.39.89-3.37,2.19-6.64,3.31-10ZM738.59,95c5.76,0,11,.18,16.33-.06,4.64-.21,5.31-1.36,3.58-5.81-3.21-8.28-6.57-16.51-9.93-24.73-.29-.7-1.07-1.2-1.62-1.79-.47.65-1.18,1.23-1.37,1.95q-3.42,12.83-6.69,25.7A34.29,34.29,0,0,0,738.59,95Z"/><path class="cls-6" d="M793.5,98.64c0,7.37,0,14.2,0,21a7.23,7.23,0,0,1-.74,3.58c-.32.52-2.33.76-2.62.39a7,7,0,0,1-1.69-3.89c0-8.51.51-17,.43-25.53-.13-13-.58-25.93-.9-38.89,0-.76-.1-1.53-.07-2.29.36-8,7.22-12,14.84-9.12,9.9,3.8,14.94,11.21,16.95,21.25,1.78,8.87,2.07,17.33-3.93,25-4.49,5.76-10.59,8.5-17.28,10.26C797.41,100.73,796,99.61,793.5,98.64Zm.63-3.6c11-1.08,18-5.4,21.22-13.42,2.83-7,1.59-14-1.19-20.74-2.31-5.63-5.76-10-11.93-11.81s-8.72-.3-8.76,6.21c-.06,8.63.46,17.25.64,25.88C794.21,85.7,794.13,90.23,794.13,95Z"/><path class="cls-6" d="M837,43.24c.61,1.26,1.75,2.53,1.75,3.79,0,14.47-.08,29-.15,43.42,0,8.11-.13,16.22,0,24.33,0,1.6,1.11,3.18,1.1,4.77a4.48,4.48,0,0,1-1.71,3.23c-.46.32-2.33-.63-2.92-1.46a7,7,0,0,1-1.17-3.9c.33-16.78.84-33.56,1.15-50.34.12-6.6-.2-13.21-.21-19.82a19,19,0,0,1,.75-3.81Z"/><path class="cls-7" d="M364.22,131.68a62.14,62.14,0,0,1-5.33,4.63c-3.85,2.63-7.55,5.79-11.82,7.43-7.34,2.81-14.59.13-21.36-2.68-10.83-4.5-16.27-13.31-18.16-24.62-1.59-9.54-3.65-19-2-28.78,1.91-11.5,7.46-20.39,17-27.39a84.09,84.09,0,0,1,25.86-12.66c4.78-1.46,9.58-1.72,13.93,1.22,1.09.74,1.59,2.36,2.35,3.57a36.47,36.47,0,0,1-4,.4c-2.9,0-5.95-.81-8.65-.14a71.79,71.79,0,0,0-29.75,15c-11,9.34-13.33,22-11.56,35.75.57,4.41,1.2,8.82,1.93,13.21,1.6,9.63,7,16.18,16.26,19.39a44.31,44.31,0,0,0,7.65,2.34c2.71.41,5.82.88,8.23,0,9.57-3.64,17-9.64,19.42-20.28.93-4.17-.12-6.44-4.12-7.79a47.93,47.93,0,0,0-9.65-1.8c-2.33-.28-4.38-.54-4.43-3.52s2.15-2.81,4.24-2.93c7.49-.44,15-1,22.46-1.51,2-.14,4,.16,3.75,2.48-.09.92-2.14,2.3-3.35,2.36-2.53.12-3.11.83-3.07,3.42.1,6.72-.42,13.45-.45,20.17,0,3.14.7,6.28.76,9.42,0,1.19-.85,2.4-1.31,3.61-1.13-1-2.74-1.74-3.27-3C364.88,137.07,364.81,134.85,364.22,131.68Z"/><path class="cls-7" d="M548.07,98.05c-.73-12.42,2.28-23,8.93-32.51,6.34-9,15.65-13.45,26.21-14.45,6.41-.62,12.59,1.56,16,8.12,2.42,4.69,5.56,9.11,7.29,14,4.68,13.27,1.86,25.76-5.19,37.55-.78,1.3-1.59,2.59-2.37,3.89-3.68,6.14-3.46,7,2.57,11.27.62.44,1.5.81,1.76,1.42a29,29,0,0,1,1.1,4.07c-1.19-.18-2.54-.06-3.55-.59a17,17,0,0,1-5.31-3.63c-2.58-3.07-5.05-2.52-8.07-.9-3.86,2.07-7.7,4.58-11.86,5.62-10.26,2.56-18.23-1.79-22.57-11.45C549.66,113.1,547.7,105.41,548.07,98.05Zm27.46,3.28,1.57-.52c.95,1.11,1.9,2.21,2.82,3.34,3,3.72,5.92,7.57,9.17,11.08.65.7,3.46.69,3.92,0,3-4.22,6.24-8.44,8.21-13.16,5.32-12.74,5.47-25.53-2.69-37.28-3.74-5.38-9.2-9.3-16.17-8-14.73,2.81-23.77,12.44-27.85,26.34-3.55,12.14-2.38,24.4,2.32,36.23a11.41,11.41,0,0,0,7.08,6.85c7.14,2.64,13.45.84,19.48-3,3.16-2,3-3,.6-6a92.65,92.65,0,0,1-7.48-10.5C575.62,105.31,575.82,103.17,575.53,101.33Z"/><path class="cls-7" d="M505.59,49.21c.78,1.64,2.08,3.23,2.23,4.92.47,5.43.48,10.9.73,16.36q.79,17.13,1.66,34.27a7.66,7.66,0,0,0,.68,1.82,13.3,13.3,0,0,0,2-1.73c2.21-2.9,4.16-6,6.56-8.74,2.28-2.56,6.07-2.49,7.88.39a20.31,20.31,0,0,1,3.27,8.71c.65,7.55.69,15.16.75,22.74,0,1.07-1.19,2.15-1.83,3.23-.74-1.18-2.06-2.32-2.12-3.52-.35-7.09-.2-14.2-.66-21.27-.15-2.4-1-6-2.58-6.81-3.2-1.64-5,1.62-6.68,4.08-4.71,7.11-5.72,15.33-7.18,23.44-.27,1.52-1.48,2.88-2.26,4.31-1.07-1.36-3-2.68-3.07-4.08-.35-7.87-.12-15.75-.35-23.62-.32-10.93-1-21.85-1.28-32.77-.2-7,0-14.09,0-21.13Z"/><path class="cls-7" d="M457.6,111.59c-.59,3.2-1.05,6.43-1.78,9.59-1.11,4.83-1.27,9.47,1,14.09.44.89-.49,2.44-.79,3.69-1.08-.58-2.68-.9-3.14-1.79-1.81-3.51-2.88-4.07-5.63-1.22s-5.7,3.83-9.43,4.18a13.88,13.88,0,0,1-14.12-9.19c-4.93-15.48,4.94-29.28,21.14-31.71C450.9,98.32,458.18,100.73,457.6,111.59Zm-6.64-.4c.2-6.66-.94-7.84-6.09-6.54a36.36,36.36,0,0,0-8.91,4.13c-6,3.51-10,14.23-7.82,20.76,1,3.1,3.08,5.36,6.54,5.57a14.37,14.37,0,0,0,15.19-12.55C450.45,118.29,450.7,114,451,111.19Z"/><path class="cls-7" d="M471.17,142.23c0-9-.08-18,0-27.06.06-4.18.51-8.35.79-12.53.15-2.33,1.24-3.59,3.68-4.08,7.21-1.46,12.32.34,15.73,6.8A50.3,50.3,0,0,1,496,118.14a9.75,9.75,0,0,1-4.78,10.76c-3.35,2-7.12,3.35-10.5,5.33-1.29.74-2.77,2.37-2.88,3.69-.47,6.19-.38,12.41-.77,18.61-.1,1.5-1.23,2.94-1.88,4.41-1.22-1.41-3.35-2.73-3.5-4.23-.45-4.79-.17-9.65-.17-14.48Zm5.45-26.54a79.77,79.77,0,0,0,.62,9.27c.19,1.11,2,2.81,3,2.78,4.79-.13,10.84-5.06,11.37-8.77.79-5.5-3.48-13.31-8.3-15.09a8,8,0,0,0-2.23-.44c-2.31-.13-3.9.49-3.88,3.31C477.21,109.41,476.87,112.07,476.62,115.69Z"/><path class="cls-7" d="M630.73,82.87c0,12,0,24.11,0,36.16,0,3.12.93,5.41,4.81,5.35,6.21-.1,12.42,0,18.62.25a6.79,6.79,0,0,1,3.79,1.72c.51.43.51,2,.17,2.73-.23.51-1.48.76-2.28.79-8.09.25-16.18.3-24.26.69-4.77.23-6.36-1.63-5.76-6.31a110.75,110.75,0,0,0,.68-14.69c-.1-19.07-.36-38.14-.46-57.21,0-1,.86-2.1,1.32-3.15.87.95,2.25,1.78,2.5,2.87a40.08,40.08,0,0,1,1,8.31c.12,7.49,0,15,0,22.49Z"/><path class="cls-7" d="M390.57,100.29c5.09,2.15,2.55,6.86,4.74,10.52,2.3-2.42,4.42-4.75,6.65-7,4.37-4.39,10.62-3.51,12.89,1.87.37.88-.05,2.09-.11,3.15a7.79,7.79,0,0,1-2.77-.25c-4.11-2.09-6.36-1.57-9.46,2.23-4.11,5-5.63,11-6.6,17.21a110,110,0,0,1-2,10.84c-.27,1.05-1.8,1.77-2.76,2.63-.63-1.09-1.79-2.19-1.8-3.29-.05-11.32.05-22.64.21-33.95A17.35,17.35,0,0,1,390.57,100.29Z"/><path class="cls-4" d="M579,203.3c1.56,1.62,3,2.64,3.78,4,3.44,6,6.65,12.19,10.07,18.22.9,1.59,2.26,2.9,4.22,5.36,1.21-4.86,2.18-8.58,3.07-12.32,2.65-11.21,5.19-22.45,8-33.62.33-1.31,2-2.28,3-3.41.57,1.64,1.92,3.47,1.58,4.9-2.48,10.6-5.37,21.11-8,31.69-1.4,5.65-2.38,11.4-3.87,17-.35,1.34-1.86,3.19-3,3.29s-2.89-1.4-3.61-2.64c-3.25-5.59-6.18-11.37-9.33-17A31.23,31.23,0,0,0,582,215l-1.21.43c-.33,1.92-.51,3.88-1,5.74-1.35,4.86-2.7,9.73-4.38,14.48-.41,1.18-2.39,2.92-3.05,2.68a5.68,5.68,0,0,1-3.09-3.3q-5.55-18.4-10.7-36.94a79.77,79.77,0,0,1-2-10.88,18.83,18.83,0,0,1,.49-4.49l1.42-.32c.94,1.64,2.33,3.18,2.75,4.94,2.5,10.46,4.7,21,7.18,31.46.76,3.24,2.1,6.34,3.53,10.58C578.45,221.3,576,212,579,203.3Z"/><path class="cls-4" d="M725,192.9c.51,6.22-3.42,10.7-9.89,12.93-4.21,1.45-5.69,3.76-5.45,8.15.32,6,.09,12.12-.18,18.17,0,1.25-1.27,2.44-1.95,3.66-1-1.28-2.75-2.49-2.88-3.86-.26-2.86.54-5.8.52-8.7-.06-12.82-.08-25.65-.46-38.46-.22-7.37,1-8.68,8.1-6.78S725.1,185.83,725,192.9Zm-15-1h.26a42.92,42.92,0,0,0,.12,6.81,3.35,3.35,0,0,0,2.48,2.15c3.64-.36,8.16-4.73,8.47-7.75.49-4.66-.75-6.52-5.91-8.88-4.23-1.93-5.83-.84-5.65,3.87C709.77,189.4,709.87,190.66,710,191.93Z"/><path class="cls-4" d="M759.84,218.29c.78-6.87,1.44-13.58,2.39-20.25a3.84,3.84,0,0,1,2.62-2.4,46.91,46.91,0,0,1,10.23-.72c1.43.08,2.76,1.83,4.13,2.82a23.84,23.84,0,0,1-3.46,2c-2.22.88-4.74,1.19-6.73,2.4-1.11.68-1.4,2.69-2.06,4.1a15.83,15.83,0,0,0,3.17,1.39c2,.42,4.11.24,5.94.93a5,5,0,0,1,2.36,3.14c.12.46-1.6,1.73-2.66,2.09s-2.58-.08-3.78.23c-2.2.57-4.79,1-6.3,2.38-.89.84-.64,4.75.19,5.18,2.3,1.21,5.16,1.46,7.84,1.77,1,.13,2.32-1.08,3.21-.8,1.22.39,2.78,1.46,3,2.52s-.91,2.78-1.91,3.27c-4.61,2.25-9.49,1.43-14.15.13-1.33-.37-2.69-2.17-3.17-3.61C760,222.79,760.09,220.41,759.84,218.29Z"/><path class="cls-4" d="M834.75,196c-3.43.19-6.56.24-9.67.57-2.59.27-4.76,1.32-4.6,4.49s2.36,4,4.91,4.36A16.89,16.89,0,0,1,840.07,222c0,1.68-.79,4.15-2,4.9-5.88,3.57-12.12,6-19.06,2.68-2.83-1.33-3.39-2.69-2.52-5.74,4.91,0,9.78.5,14.49-.13,5.45-.72,6-3,2.86-7.41-2.29-3.18-5-5-9.15-5.19-5.51-.23-9.41-5.85-8.58-11.44,1-6.61,4.89-9.63,11.18-8.64C832.46,191.81,832.7,192,834.75,196Z"/><path class="cls-4" d="M646.5,232.24c-.44-1.35-1.29-2.71-1.26-4.06q.24-12,.9-23.92c.06-1.14,1.26-3.25,1.68-3.19,2.61.38,5.26-2.53,7.87.29,3,3.21,4,6.87,1.91,11.15-1.34,2.76-.63,4.44,1.52,6.17,3,2.36,5.92,4.76,8.65,7.38.81.77.86,2.34,1.25,3.54-1.34.35-3.07,1.4-3.95.91a42.11,42.11,0,0,1-6.27-4.88c-.48-.4-.72-1.14-1.23-1.44-2.31-1.35-4.69-2.6-7-3.89-.42,2.25-.82,4.5-1.25,6.74-.34,1.73-.71,3.45-1.07,5.18Zm2.9-22.92c1.41.92,2.54,2,2.8,1.77a6.07,6.07,0,0,0,2.09-2.67c.15-.4-.94-1.26-1.46-1.91Z"/><path class="cls-4" d="M787.52,221.37c3,.71,5.73,1.8,8.48,1.86a10.55,10.55,0,0,0,6-2.14c.64-.47.38-3.52-.49-4.37a14.51,14.51,0,0,0-5.63-2.9c-5.41-1.79-9.09-6.34-8.18-10.44a11.54,11.54,0,0,1,12.27-8.6c1,.11,2,.11,3,.17,3.68.2,5.12,2.31,4.28,5.63-3.59,0-7.1-.35-10.47.16-1.49.23-2.71,2.2-4.05,3.38a27,27,0,0,0,3.66,3.67c2.69,1.83,5.73,3.17,8.34,5.1,2.82,2.08,3.72,7.62,2.15,10.81-2.25,4.6-5,6.29-9.58,5.5a55.35,55.35,0,0,1-6.9-1.86C787.84,226.52,787,224.62,787.52,221.37Z"/><path d="M175.26,231.18c5.56-.46,9.82-.75,14.07-1.22,1.47-.16,2.87-.84,4.33-1.13,6.41-1.26,9.84,2.17,8.45,8.5-2.05,9.37-7.7,16.83-13.38,24.16-.95,1.23-4.25,1.63-6,1.06-7.42-2.35-14.53-5.73-22-7.71a28.81,28.81,0,0,0-13.78-.21c-5.73,1.42-11.06,4.48-16.54,6.86-.68.3-1.27.8-1.93,1.15-8.31,4.44-10.94,3.28-12.14-5.89-.88-6.81-1.2-13.7-1.86-20.55-.34-3.58,1.2-5,4.67-4.54,4.4.55,8.81,1.05,13.21,1.58l1-1.3c-3.42-3.44-6.6-7.19-10.33-10.25-7.4-6.08-15-12-22.76-17.52a31.74,31.74,0,0,0-10.38-4.82c-6.45-1.65-9.16-6.52-5.64-12.11,3.83-6.1,2.11-12.33,1.69-19.88-3.76,1.56-7.1,2.36-9.77,4.14-11.42,7.61-22.85,5.65-34.13.21-7.31-3.53-12.27-9.81-16.87-16.39-6.89-9.84-2.57-19.73,6.4-26.16,13.08-9.37,27.84-10.94,43.16-10.26a38.9,38.9,0,0,1,9.15,1.94c4.47,1.3,5.52.73,5.55-3.74q.06-5.82-.09-11.63c-.17-7.42,3.72-10.54,10.69-8.9,1.21.28,3.15-.65,4.14-1.64,7.37-7.36,14.58-14.89,21.86-22.35,4.28-4.38,8.6-8.71,12.87-13.11a20,20,0,0,0,1.79-2.55c-9-3.45-17.4.54-26.09.16l13.86-4.55,0-1.77-17.51-1.55v-1h19.43l.54-1.49-11.42-9.41c10.78,1.66,16.48,10.58,25.43,15.21,3.39-4.64,8.75-7.93,9.33-14.88.39-4.74,6-8.94,10.09-8.48,6,.69,9,5.33,10.21,10.49,1.1,4.72,4.88,8.85,7.71,13.09.14.22,2.62-.66,3.58-1.51,4.47-4,8.76-8.12,13.16-12.15a4,4,0,0,1,2.75-1q-5,5.3-9.94,10.6l1,1.5,12.55-3.66.24.55-5.39,2.94.23,1.3,13.74-1.65.06.35c-8,2-16.06,4.06-24.09,6.13-3.52.91-4.33,3.33-2.11,6.22Q200.32,78.52,212.7,94.6c1.93,2.51,4.08,4.16,7.62,3.47,3.22-.62,6.61-.27,7.74,3.49s2,7.51-.92,11.72c-2.26,3.24-2.12,8.14-3.25,13.27,4.63-1.26,7.72-2.19,10.84-2.93,4.45-1.06,8.89-2.17,13.39-2.93,5.81-1,17.41,5.13,20.45,10.18,1.28,2.12,3.25,3.83,4.94,5.71,6.52,7.25,6.1,15.58-1.34,21.68-12.67,10.37-27,12.48-42.47,7.93-6.26-1.85-6.68-1.76-6.63,4.76,0,4.48.16,9,.54,13.43.11,1.32,1.55,2.5,1.78,3.85.45,2.66,1.52,6,.39,7.92s-4.84,3.9-7,3.52c-6.35-1.11-10.79,1.86-15,5.43-8.59,7.21-17,14.62-25.45,22C177.35,227.9,176.78,229.08,175.26,231.18ZM165.71,52.66l-1.46.07c-4.24,8-8.67,16-12.67,24.12-3.48,7.11-6.74,14.36-9.64,21.72-3.22,8.21-5.78,16.67-8.92,24.91a181.85,181.85,0,0,1-8.57,20.22c-5.72,10.83-12.19,21.26-18.12,32-2.46,4.46-4.37,9.23-6.84,14.53,2.34.14,3.49.18,4.64.28,9.23.74,18.48,1.47,27.71,2.26,4.18.36,8.37,1.36,12.51,1.2,21.4-.85,42.79-2,64.17-3,2.95-.15,7.75-6.83,6.9-9.65a120.14,120.14,0,0,0-4.6-13.56c-8.79-20.17-18.19-40.07-26.52-60.42-5.31-13-9.15-26.57-13.64-39.88Q168.17,60,165.71,52.66ZM93.54,179.59l1.35.47c2-3.12,4.26-6.13,6-9.39,4.44-8.13,8.11-16.75,13.16-24.48,6.39-9.78,10.79-20.34,14.54-31.23,6-17.39,12.6-34.48,21.25-50.74a46.33,46.33,0,0,0,2.38-6.77l-1.13-.71c-1.78,1.69-3.59,3.36-5.33,5.1-8.95,9-18.08,17.74-26.73,27-5,5.28-9.06,11.35-13.63,17-2,2.48-4.21,4.77-6.26,7.21-1.15,1.36-2.9,2.75-3.1,4.3-.92,7.05-1.62,14.15-2,21.26-.56,12-.81,23.94-1.11,35.91A38,38,0,0,0,93.54,179.59Zm14.61,18.85-.76,1.79c1.57,1.64,3,3.4,4.72,4.88,8.6,7.55,17,15.39,26,22.4,5.63,4.38,10.39,11.89,19.58,8.5.4-.14.95.11,1.33-.06a10.84,10.84,0,0,0,3-1.63c5.86-5.52,11.6-11.15,17.46-16.67,6.26-5.91,12.6-11.73,18.91-17.59l-.34-1.49c-26.9,0-53.88,5-80.72-.06C114.38,198,111.22,198.44,108.15,198.44ZM87.16,164a18,18,0,0,0,.11-2.1c-.22-11.71,2.23-12-10.89-7.77-6.67,2.15-13.24,3.67-20.24,1.93-3.53-.88-8-5.14-8.43-8.35-.58-4.43,2.12-10.18,5.75-11.8a49,49,0,0,1,29.37-3.42c2.59.47,5,1.35,5.88-2.5s-1.27-5.09-4.16-5.43c-7.39-.86-14.84-2.2-22.21-1.91-12.17.48-23.69,3.64-32.67,12.75-5.11,5.19-5.53,10-1.62,16.19,4.21,6.66,9.19,12.6,16.23,16.38,8.08,4.34,16.62,5.82,25.51,2.68C75.32,168.67,80.76,166.44,87.16,164ZM176,57.17l-1.06.52c1.17,4.35,2.15,8.76,3.54,13,3.86,11.9,7.41,23.94,12,35.57,6.77,17.25,14.3,34.2,21.62,51.23.5,1.17,2,1.93,3,2.88.55-1.25,1.52-2.47,1.58-3.75.53-10.17.36-20.4,1.44-30.5,1-9.09-2.92-16.51-6.23-24.26a22,22,0,0,0-3.22-4.81q-11.44-14.37-23-28.66C182.5,64.59,179.18,60.92,176,57.17Zm50,82.14c2.57-1.13,5.11-2.22,7.62-3.36,6.88-3.12,13.87-5.91,21.27-2,2.07,1.1,4.64,3.21,4.94,5.18.36,2.37-.7,6.11-2.48,7.39-3,2.15-7,3.3-10.69,4-5.87,1.07-11.88,1.37-17.82,2.07-2.51.3-4.59,1.06-4.88,4.23s1.44,4.07,3.83,5.18c12.43,5.78,24.47,2.86,35.93-2.35,4.69-2.14,9.86-5.75,10.18-12.13.45-8.74-11.84-22.31-20.59-23.32-8.49-1-16.24,1.64-23.81,4.84C225.78,130.62,224.49,134.79,226,139.31ZM161.32,253.59c1.06.45,1.74,1,2.38,1a30.08,30.08,0,0,1,16.87,3.49c1.57.85,5.48.49,6.14-.61a255.46,255.46,0,0,0,12.14-22.82c1.22-2.62-.82-4.2-3.77-3.58-6.4,1.35-12.82,2.66-19.19,4.17-3.66.88-7.74,1.33-9.48,5.52S163.14,249,161.32,253.59Zm-12.51-1.3c-1.74-6.52-2.72-12.63-10-14.29-5.69-1.29-11.31-2.89-17-4.08-3.93-.82-4.68.27-4.1,4.35.73,5.16,1.53,10.34,1.77,15.53.27,6.19,1.91,7.06,7.8,4.74,5.49-2.16,11.33-3.46,17-5.12C145.65,253,147.07,252.72,148.81,252.29ZM64.64,153.23c6.42-1,12.29-2.16,18.22-2.6,3.26-.25,4.16-1.72,4.29-4.43a19.47,19.47,0,0,0,0-5.34c-.34-1.38-1.35-3.34-2.48-3.67-10.38-3.08-20.7-3.31-30.22,2.65C52.58,141,50.7,144,50.87,146s2.62,4.31,4.65,5.23C58.41,152.5,61.83,152.66,64.64,153.23Zm159.75-3.58,1.4.73c5.81-1,11.62-2,17.41-3a48.11,48.11,0,0,0,8.24-1.77c2.82-1,5.8-2.87,4.91-6.47s-4.31-4.39-7.24-3.6A113.36,113.36,0,0,0,230,142C227.47,143.23,226.21,147,224.39,149.65Z"/><path class="cls-3" d="M165.71,52.66q2.47,7.37,4.95,14.74c4.49,13.31,8.33,26.9,13.64,39.88,8.33,20.35,17.73,40.25,26.52,60.42a120.14,120.14,0,0,1,4.6,13.56c.85,2.82-3.95,9.5-6.9,9.65-21.38,1.08-42.77,2.19-64.17,3-4.14.16-8.33-.84-12.51-1.2-9.23-.79-18.48-1.52-27.71-2.26-1.15-.1-2.3-.14-4.64-.28,2.47-5.3,4.38-10.07,6.84-14.53,5.93-10.72,12.4-21.15,18.12-32A181.85,181.85,0,0,0,133,123.48c3.14-8.24,5.7-16.7,8.92-24.91,2.9-7.36,6.16-14.61,9.64-21.72,4-8.15,8.43-16.09,12.67-24.12Zm-6.16,101.76c3.3-1.28,6.69-2.37,9.87-3.9a86.82,86.82,0,0,0,8.87-5.21,8.19,8.19,0,0,0,3.08-2.89c.36-.75-.57-2.11-.92-3.19a20.18,20.18,0,0,0-4.06,2c-5.82,4.64-11.86,8.71-19.78,8.24a26.94,26.94,0,0,1-16.1-6.8c-.82-.69-2.47-.39-3.73-.55.46,1.32.53,3.28,1.46,3.85C144.73,150,151.22,154.19,159.55,154.42Z"/><path class="cls-3" d="M93.54,179.59a38,38,0,0,1-.51-5.07c.3-12,.55-24,1.11-35.91.33-7.11,1-14.21,2-21.26.2-1.55,2-2.94,3.1-4.3,2-2.44,4.27-4.73,6.26-7.21,4.57-5.66,8.68-11.73,13.63-17,8.65-9.25,17.78-18,26.73-27,1.74-1.74,3.55-3.41,5.33-5.1l1.13.71a46.33,46.33,0,0,1-2.38,6.77c-8.65,16.26-15.28,33.35-21.25,50.74-3.75,10.89-8.15,21.45-14.54,31.23-5,7.73-8.72,16.35-13.16,24.48-1.79,3.26-4,6.27-6,9.39Z"/><path class="cls-3" d="M108.15,198.44c3.07,0,6.23-.49,9.2.07,26.84,5.08,53.82.05,80.72.06l.34,1.49c-6.31,5.86-12.65,11.68-18.91,17.59-5.86,5.52-11.6,11.15-17.46,16.67a10.84,10.84,0,0,1-3,1.63c-.38.17-.93-.08-1.33.06-9.19,3.39-13.95-4.12-19.58-8.5-9-7-17.4-14.85-26-22.4-1.7-1.48-3.15-3.24-4.72-4.88Z"/><path class="cls-3" d="M87.16,164c-6.4,2.46-11.84,4.69-17.37,6.65-8.89,3.14-17.43,1.66-25.51-2.68-7-3.78-12-9.72-16.23-16.38-3.91-6.16-3.49-11,1.62-16.19,9-9.11,20.5-12.27,32.67-12.75,7.37-.29,14.82,1.05,22.21,1.91,2.89.34,5,1.62,4.16,5.43s-3.29,3-5.88,2.5a49,49,0,0,0-29.37,3.42c-3.63,1.62-6.33,7.37-5.75,11.8.42,3.21,4.9,7.47,8.43,8.35,7,1.74,13.57.22,20.24-1.93,13.12-4.24,10.67-3.94,10.89,7.77A18,18,0,0,1,87.16,164Z"/><path class="cls-3" d="M176,57.17c3.23,3.75,6.55,7.42,9.67,11.26q11.56,14.26,23,28.66a22,22,0,0,1,3.22,4.81c3.31,7.75,7.2,15.17,6.23,24.26-1.08,10.1-.91,20.33-1.44,30.5-.06,1.28-1,2.5-1.58,3.75-1-.95-2.49-1.71-3-2.88-7.32-17-14.85-34-21.62-51.23-4.57-11.63-8.12-23.67-12-35.57-1.39-4.28-2.37-8.69-3.54-13Z"/><path class="cls-3" d="M226,139.31c-1.5-4.52-.21-8.69,3.5-10.26,7.57-3.2,15.32-5.82,23.81-4.84,8.75,1,21,14.58,20.59,23.32-.32,6.38-5.49,10-10.18,12.13-11.46,5.21-23.5,8.13-35.93,2.35-2.39-1.11-4.11-2.12-3.83-5.18s2.37-3.93,4.88-4.23c5.94-.7,11.95-1,17.82-2.07,3.72-.69,7.69-1.84,10.69-4,1.78-1.28,2.84-5,2.48-7.39-.3-2-2.87-4.08-4.94-5.18-7.4-3.93-14.39-1.14-21.27,2C231.1,137.09,228.56,138.18,226,139.31Z"/><path class="cls-8" d="M161.32,253.59c1.82-4.6,3.39-8.75,5.09-12.85s5.82-4.64,9.48-5.52c6.37-1.51,12.79-2.82,19.19-4.17,2.95-.62,5,1,3.77,3.58a255.46,255.46,0,0,1-12.14,22.82c-.66,1.1-4.57,1.46-6.14.61a30.08,30.08,0,0,0-16.87-3.49C163.06,254.61,162.38,254,161.32,253.59Z"/><path class="cls-8" d="M148.81,252.29c-1.74.43-3.16.73-4.56,1.13-5.69,1.66-11.53,3-17,5.12-5.89,2.32-7.53,1.45-7.8-4.74-.24-5.19-1-10.37-1.77-15.53-.58-4.08.17-5.17,4.1-4.35,5.71,1.19,11.33,2.79,17,4.08C146.09,239.66,147.07,245.77,148.81,252.29Z"/><path class="cls-9" d="M64.64,153.23c-2.81-.57-6.23-.73-9.12-2-2-.92-4.49-3.31-4.65-5.23s1.71-5,3.56-6.12c9.52-6,19.84-5.73,30.22-2.65,1.13.33,2.14,2.29,2.48,3.67a19.47,19.47,0,0,1,0,5.34c-.13,2.71-1,4.18-4.29,4.43C76.93,151.07,71.06,152.27,64.64,153.23Z"/><path class="cls-9" d="M224.39,149.65c1.82-2.61,3.08-6.42,5.58-7.61a113.36,113.36,0,0,1,19.14-6.54c2.93-.79,6.39.11,7.24,3.6s-2.09,5.42-4.91,6.47a48.11,48.11,0,0,1-8.24,1.77c-5.79,1-11.6,2-17.41,3Z"/><path class="cls-9" d="M159.55,154.42c-8.33-.23-14.82-4.45-21.31-8.45-.93-.57-1-2.53-1.46-3.85,1.26.16,2.91-.14,3.73.55a26.94,26.94,0,0,0,16.1,6.8c7.92.47,14-3.6,19.78-8.24a20.18,20.18,0,0,1,4.06-2c.35,1.08,1.28,2.44.92,3.19a8.19,8.19,0,0,1-3.08,2.89,86.82,86.82,0,0,1-8.87,5.21C166.24,152.05,162.85,153.14,159.55,154.42Z"/></svg>